<?xml version="1.0" encoding="utf-8"?>
<!-- Generator: Adobe Illustrator 20.0.0, SVG Export Plug-In . SVG Version: 6.00 Build 0)  -->
<svg version="1.1" id="Layer_1" xmlns="http://www.w3.org/2000/svg" xmlns:xlink="http://www.w3.org/1999/xlink" x="0px" y="0px"
	 viewBox="0 0 729.3 474" style="enable-background:new 0 0 729.3 474;" xml:space="preserve">
<style type="text/css">
	.green{fill:url(#greenFill);}
	.red{fill:url(#redFill);}
	.blue{fill:url(#blueFill);}
	.st1{fill:#FFFFFF;}
	.st2{fill:url(#SVGID_1_);}
	.st3{fill:#DBDAD7;}
	.st4{fill:url(#SVGID_2_);}
	.st5{fill:#696969;}
	.st6{enable-background:new    ;}
	.st7{clip-path:url(#SVGID_4_);enable-background:new    ;}
	.st8{clip-path:url(#SVGID_6_);enable-background:new    ;}
	.st9{fill:#828282;}
	.st10{clip-path:url(#SVGID_8_);enable-background:new    ;}
	.st11{clip-path:url(#SVGID_10_);enable-background:new    ;}
	.st12{fill:#8A8A8A;}
	.st13{fill:#8C8C8C;}
	.st14{fill:#8F8F8F;}
	.st15{fill:#919191;}
	.st16{fill:#949494;}
	.st17{fill:#969696;}
	.st18{fill:#999999;}
	.st19{fill:#9C9C9C;}
	.st20{fill:#9E9E9E;}
	.st21{fill:#A1A1A1;}
	.st22{fill:#A3A3A3;}
	.st23{fill:#A6A6A6;}
	.st24{fill:#A8A8A8;}
	.st25{fill:#ABABAB;}
	.st26{fill:#ADADAD;}
	.st27{fill:#B0B0B0;}
	.st28{fill:#B3B3B3;}
	.st29{clip-path:url(#SVGID_12_);enable-background:new    ;}
	.st30{fill:#808080;}
	.st31{clip-path:url(#SVGID_14_);enable-background:new    ;}
	.st32{fill:#878787;}
	.st33{fill:#858585;}
	.st34{clip-path:url(#SVGID_16_);enable-background:new    ;}
	.st35{clip-path:url(#SVGID_18_);enable-background:new    ;}
	.st36{clip-path:url(#SVGID_20_);enable-background:new    ;}
	.st37{fill:#B4B4B4;}
	.st38{clip-path:url(#SVGID_22_);enable-background:new    ;}
	.st39{fill:#959595;}
	.st40{clip-path:url(#SVGID_24_);enable-background:new    ;}
	.st41{clip-path:url(#SVGID_26_);}
	.st42{clip-path:url(#SVGID_28_);enable-background:new    ;}
	.st43{fill:url(#SVGID_29_);stroke:url(#SVGID_30_);stroke-width:1.1037;stroke-miterlimit:10;}
	.st44{fill:url(#SVGID_31_);}
	.st45{fill:url(#SVGID_32_);}
	.st46{fill:url(#XMLID_3_);}
	.st47{fill:url(#XMLID_6_);}
	.st48{fill:url(#XMLID_7_);}
	.st49{fill:url(#SVGID_33_);}
	.st50{fill:#616264;}
	.st51{fill:#828487;}
	.st52{fill:url(#SVGID_34_);stroke:#828487;stroke-width:2.8179;stroke-miterlimit:10;}
	.st53{fill:url(#SVGID_35_);stroke:#828487;stroke-width:2.8179;stroke-linejoin:round;stroke-miterlimit:10;}
	.st54{fill:#B8BABC;stroke:#828487;stroke-width:2.8179;stroke-miterlimit:10;}
	.st55{fill:#F1EA22;stroke:#B8BABC;stroke-width:2.8179;stroke-miterlimit:10;}
	.st55off{fill:#B8BABC;stroke:#B8BABC;stroke-width:2.8179;stroke-miterlimit:10;}
	.st56{fill:url(#SVGID_36_);stroke:#B8BABC;stroke-width:5.6358;stroke-miterlimit:10;}
	.st57{fill:url(#SVGID_37_);stroke:#B8BABC;stroke-width:2.8179;stroke-linejoin:round;stroke-miterlimit:10;}
	.st58{fill:url(#SVGID_38_);}
	.st59{fill:url(#SVGID_39_);stroke:#B8BABC;stroke-width:2.8179;stroke-miterlimit:10;}
	.st60{fill:url(#SVGID_40_);}
	.st61{fill:#97999C;stroke:#97999C;stroke-width:2.8179;stroke-linecap:round;stroke-linejoin:round;stroke-miterlimit:10;}
	.st62{fill:url(#SVGID_41_);}
	.st63{fill:url(#SVGID_42_);stroke:#B8BABC;stroke-width:2.8179;stroke-linejoin:round;stroke-miterlimit:10;}
	.st64{fill:url(#SVGID_43_);stroke:#B8BABC;stroke-width:2.8179;stroke-miterlimit:10;}
	.st65{fill:url(#SVGID_44_);}
	.st66{fill:url(#SVGID_45_);}
	.st67{fill:url(#SVGID_46_);stroke:#B8BABC;stroke-width:2.8179;stroke-miterlimit:10;}
	.st68{fill:url(#SVGID_47_);stroke:#B8BABC;stroke-width:2.8179;stroke-linejoin:round;stroke-miterlimit:10;}
	.st69{fill:url(#SVGID_48_);stroke:#B8BABC;stroke-width:2.8179;stroke-linejoin:round;stroke-miterlimit:10;}
	.st70{fill:#EFEFEF;}
	.st71{fill:#E9E9E9;}
	.st72{fill:#F5F5F5;}
	.st73{fill:#B6B6B6;}
	.st74{fill:#C0C0C0;}
	.st75{fill:#C5C5C5;}
	.st76{fill:#D1D1D1;}
	.st77{fill:#CACACA;}
	.st78{fill:#CCCCCC;}
	.st79{fill:#D8D8D8;}
	.st80{fill:#DCDCDC;}
	.st81{fill:#AEAEAE;}
	.st82{fill:#C7C7C7;}
	.st83{fill:#D5D5D5;}
	.st84{fill:#232323;}
	.st85{fill:#484848;}
	.st86{fill:#4E4E4E;}
	.st87{fill:#2E2E2E;}
	.st88{fill:#888888;}
	.st89{fill:#747474;}
	.st90{fill:#848484;}
	.st91{fill:#545454;}
	.st92{fill:#EEEEEE;}
	.st93{fill:#B5B5B5;}
	.st94{fill:#1B1B1B;}
	.st95{fill:#333333;}
	.st96{fill:#9A9A9A;}
	.st97{fill:#AFAFAF;}
	.st98{fill:#494949;}
	.st99{fill:#757575;}
	.st100{fill:#565656;}
	.st101{fill:#1A1A1A;}
	.st102{fill:#404040;}
	.st103{fill:#2A2A2A;}
	.st104{fill:#444444;}
	.st105{fill:#BABABA;}
	.st106{fill:#777777;}
	.st107{fill:#AAAAAA;}
	.st108{fill:#6A6A6A;}
	.st109{fill:#202020;}
	.st110{fill:#1C1C1C;}
	.st111{fill:#2D2D2D;}
	.st112{fill:#424242;}
	.st113{fill:#0D0D0D;}
	.st114{fill:#272727;}
	.st115{fill:#4A4A4A;}
	.st116{fill:#3A3A3A;}
	.st117{fill:#353535;}
	.st118{fill:#343434;}
	.st119{fill:#111111;}
	.st120{fill:#313131;}
	.st121{fill:#7A7A7A;}
	.st122{fill:url(#SVGID_49_);stroke:#919191;stroke-width:6.773817e-02;stroke-miterlimit:10;}
	.st123{fill:url(#SVGID_50_);stroke:#919191;stroke-width:6.773817e-02;stroke-miterlimit:10;}
	.st124{fill:url(#SVGID_51_);stroke:#919191;stroke-width:6.773817e-02;stroke-miterlimit:10;}
	.st125{fill:url(#SVGID_52_);stroke:#919191;stroke-width:6.773817e-02;stroke-miterlimit:10;}
	.st126{fill:url(#SVGID_53_);stroke:#919191;stroke-width:6.773817e-02;stroke-miterlimit:10;}
	.st127{fill:url(#SVGID_54_);stroke:#919191;stroke-width:6.696399e-02;stroke-miterlimit:10;}
	.st128{fill:url(#SVGID_55_);stroke:#919191;stroke-width:6.773817e-02;stroke-miterlimit:10;}
	.st129{fill:url(#SVGID_56_);stroke:#919191;stroke-width:6.773817e-02;stroke-linejoin:round;stroke-miterlimit:10;}
	.st130{fill:url(#SVGID_57_);stroke:#919191;stroke-width:6.773817e-02;stroke-linejoin:round;stroke-miterlimit:10;}
	.st131{fill:url(#SVGID_58_);stroke:#919191;stroke-width:6.773817e-02;stroke-linejoin:round;stroke-miterlimit:10;}
	.st132{fill:url(#SVGID_59_);stroke:#919191;stroke-width:6.773817e-02;stroke-linejoin:round;stroke-miterlimit:10;}
	.st133{fill:url(#SVGID_60_);stroke:#919191;stroke-width:6.773817e-02;stroke-linejoin:round;stroke-miterlimit:10;}
</style>
<g id="Beacon">
	<radialGradient id="greenFill" cx="654.6957" cy="68.8014" r="56.9892" gradientUnits="userSpaceOnUse">
		<stop  offset="0" style="stop-color:#FFFFFF"/>
		<stop  offset="0.2814" style="stop-color:#18AE4B"/>
		<stop  offset="0.6196" style="stop-color:#18AE4B"/>
		<stop  offset="0.7185" style="stop-color:#1D9845"/>
		<stop  offset="0.9222" style="stop-color:#1B6934"/>
		<stop  offset="1" style="stop-color:#17572D"/>
	</radialGradient>
	<radialGradient id="redFill" cx="654.6957" cy="68.8014" r="56.9892" gradientUnits="userSpaceOnUse">
		<stop  offset="0" style="stop-color:#FFFFFF"/>
		<stop  offset="0.2814" style="stop-color:#EE3035"/>
		<stop  offset="0.6196" style="stop-color:#EE3035"/>
		<stop  offset="0.7525" style="stop-color:#CD2E34"/>
		<stop  offset="1" style="stop-color:#942831"/>
	</radialGradient>
	<radialGradient id="blueFill" cx="654.6957" cy="68.8014" r="56.9892" gradientUnits="userSpaceOnUse">
		<stop  offset="0" style="stop-color:#FFFFFF"/>
		<stop  offset="0.2814" style="stop-color:#4374B9"/>
		<stop  offset="0.6196" style="stop-color:#4374B9"/>
		<stop  offset="0.7361" style="stop-color:#3D68A2"/>
		<stop  offset="0.9759" style="stop-color:#2C4E77"/>
		<stop  offset="1" style="stop-color:#2A4B73"/>
	</radialGradient>
	<circle id="beaconObject" class="red" cx="654.5" cy="49.7" r="37.8"/>
	<path class="st1" d="M625.2,35.2c-1.2-1.2-1.5-1.6-2.6-2.9c-2.1,3.7-3.5,7.9-4.1,12.3c1.6,2.1,2.1,2.7,4.1,4.5
		C622.5,42.8,623.8,39.3,625.2,35.2z"/>
	<linearGradient id="SVGID_1_" gradientUnits="userSpaceOnUse" x1="631.6635" y1="49.2651" x2="629.9628" y2="15.251">
		<stop  offset="0" style="stop-color:#D8DEEA"/>
		<stop  offset="0.3129" style="stop-color:#EAECF3"/>
		<stop  offset="0.6676" style="stop-color:#F8F9FB"/>
		<stop  offset="1" style="stop-color:#FFFFFF"/>
	</linearGradient>
	<path class="st2" d="M623.4,30.9c1,1.1,1.4,1.5,2.6,2.5c2.6-7.1,7.1-11.2,11.5-15.2C631.7,21,626.8,25.5,623.4,30.9z"/>
	<g>
		
			<image style="overflow:visible;enable-background:new    ;" width="80" height="80" xlink:href="11A85C84.png"  transform="matrix(1 0 0 1 585.326 -7)">
		</image>
	</g>
</g>
<g>
	<path class="st3" d="M675.3,80.2c0,0.7-9.3,6.3-20.8,6.3s-20.8-5.6-20.8-6.3c0-0.7,9.3,3.7,20.8,3.7
		C666,83.9,675.3,79.4,675.3,80.2z"/>
	
		<linearGradient id="SVGID_2_" gradientUnits="userSpaceOnUse" x1="618.1699" y1="203.3" x2="693.7197" y2="203.3" gradientTransform="matrix(1 0 0 -1 0 476)">
		<stop  offset="3.225806e-02" style="stop-color:#D1D1D1"/>
		<stop  offset="0.1173" style="stop-color:#DDDDDD"/>
		<stop  offset="0.2366" style="stop-color:#F4F4F4"/>
		<stop  offset="0.2684" style="stop-color:#E2E2E2"/>
		<stop  offset="0.3079" style="stop-color:#D3D3D3"/>
		<stop  offset="0.3544" style="stop-color:#CACACA"/>
		<stop  offset="0.4247" style="stop-color:#C7C7C7"/>
		<stop  offset="0.5621" style="stop-color:#C9C9C9"/>
		<stop  offset="0.6115" style="stop-color:#D0D0D0"/>
		<stop  offset="0.6467" style="stop-color:#DBDBDB"/>
		<stop  offset="0.672" style="stop-color:#EAEAEA"/>
		<stop  offset="0.7652" style="stop-color:#C6C6C6"/>
		<stop  offset="0.8727" style="stop-color:#A2A2A2"/>
		<stop  offset="0.9301" style="stop-color:#949494"/>
	</linearGradient>
	<path class="st4" d="M678.3,473h-47.4c-8.1,0-14.7-8.4-14.7-18.6V91c0-10.2,6.6-18.6,14.7-18.6h47.4c8.1,0,14.7,8.4,14.7,18.6
		v363.4C693,464.6,686.4,473,678.3,473z"/>
	<g>
		<g id="Layer_1_1_">
			<g>
				<g>
					<polygon class="st5" points="622.9,228.4 625.1,228.6 622.8,301.5 620.5,301.3 					"/>
				</g>
				<g class="st6">
					<g>
						<defs>
							<path id="SVGID_3_" d="M630.7,312.8l-2.3-0.2c-4.6-0.4-8.2-5.3-8-11.3l2.3,0.2C622.6,307.4,626.1,312.4,630.7,312.8z"/>
						</defs>
						<clipPath id="SVGID_4_">
							<use xlink:href="#SVGID_3_"  style="overflow:visible;"/>
						</clipPath>
						<g class="st7">
							<path class="st5" d="M620.5,301.3l2.3,0.2c0,0.1,0,0.3,0,0.4l-2.3-0.2C620.5,301.6,620.5,301.4,620.5,301.3"/>
							<path class="st5" d="M620.5,301.7l2.3,0.2c0,0.4,0,0.7,0,1.1l-2.3-0.2C620.5,302.5,620.5,302.1,620.5,301.7"/>
							<path class="st5" d="M620.5,302.8l2.3,0.2c0.1,1.7,0.5,3.2,1.2,4.5l-2.3-0.2C621.1,306,620.7,304.5,620.5,302.8"/>
							<path class="st5" d="M621.7,307.4l2.3,0.2c0.1,0.3,0.3,0.6,0.5,0.9l-2.3-0.2C622,308,621.9,307.7,621.7,307.4"/>
							<path class="st5" d="M622.2,308.3l2.3,0.2c0.1,0.2,0.3,0.5,0.4,0.7l-2.3-0.2C622.5,308.7,622.3,308.5,622.2,308.3"/>
							<path class="st5" d="M622.6,309l2.3,0.2c0.1,0.2,0.3,0.4,0.4,0.5l-2.3-0.2C622.9,309.3,622.8,309.1,622.6,309"/>
							<path class="st5" d="M623,309.5l2.3,0.2c0.1,0.2,0.3,0.3,0.4,0.5l-2.3-0.2C623.3,309.8,623.2,309.7,623,309.5"/>
							<path class="st5" d="M623.4,310l2.3,0.2c0.1,0.1,0.3,0.3,0.4,0.4l-2.3-0.2C623.7,310.2,623.6,310.1,623.4,310"/>
							<path class="st5" d="M623.8,310.4l2.3,0.2c0.1,0.1,0.3,0.2,0.4,0.3l-2.3-0.2C624.1,310.6,623.9,310.5,623.8,310.4"/>
							<path class="st5" d="M624.2,310.7l2.3,0.2c0.1,0.1,0.3,0.2,0.4,0.3l-2.3-0.2C624.5,310.9,624.3,310.8,624.2,310.7"/>
							<path class="st5" d="M624.6,311l2.3,0.2c0.1,0.1,0.3,0.2,0.4,0.3l-2.3-0.2C624.8,311.2,624.7,311.1,624.6,311"/>
							<path class="st5" d="M625,311.3l2.3,0.2c0.1,0.1,0.3,0.2,0.4,0.3l-2.3-0.2C625.2,311.5,625.1,311.4,625,311.3"/>
							<path class="st5" d="M625.4,311.6l2.3,0.2c0.1,0.1,0.3,0.2,0.4,0.2l-2.3-0.2C625.6,311.7,625.5,311.6,625.4,311.6"/>
							<path class="st5" d="M625.8,311.8l2.3,0.2c0.1,0.1,0.3,0.1,0.4,0.2l-2.3-0.2C626.1,311.9,625.9,311.8,625.8,311.8"/>
							<path class="st5" d="M626.2,312l2.3,0.2c0.1,0.1,0.3,0.1,0.4,0.2l-2.3-0.2C626.5,312.1,626.3,312,626.2,312"/>
							<path class="st5" d="M626.6,312.2l2.3,0.2c0.1,0.1,0.3,0.1,0.5,0.2l-2.3-0.2C626.9,312.3,626.8,312.2,626.6,312.2"/>
							<path class="st5" d="M627.1,312.3l2.3,0.2c0.2,0,0.3,0.1,0.5,0.1l-2.3-0.2C627.4,312.4,627.2,312.3,627.1,312.3"/>
							<path class="st5" d="M627.6,312.4l2.3,0.2c0.2,0,0.4,0.1,0.5,0.1l-2.3-0.2C627.9,312.5,627.7,312.5,627.6,312.4"/>
							<path class="st5" d="M628.1,312.5l2.3,0.2c0.1,0,0.3,0,0.4,0l-2.3-0.2C628.3,312.6,628.2,312.5,628.1,312.5"/>
						</g>
					</g>
				</g>
				<g class="st6">
					<g>
						<defs>
							<path id="SVGID_5_" d="M630.7,312.8l-2.3-0.2c0.2,0,0.4,0,0.6,0l2.3,0.2C631.1,312.8,630.9,312.8,630.7,312.8z"/>
						</defs>
						<clipPath id="SVGID_6_">
							<use xlink:href="#SVGID_5_"  style="overflow:visible;"/>
						</clipPath>
						<g class="st8">
							<path class="st9" d="M629.1,312.6l2.3,0.2c-0.2,0-0.4,0-0.6,0l-2.3-0.2C628.7,312.6,628.9,312.6,629.1,312.6"/>
						</g>
					</g>
				</g>
				<g class="st6">
					<g>
						<defs>
							<path id="SVGID_7_" d="M630.4,316.4l-2.3-0.2c0.3,0,0.5,0,0.8,0l2.3,0.2C631,316.5,630.7,316.4,630.4,316.4z"/>
						</defs>
						<clipPath id="SVGID_8_">
							<use xlink:href="#SVGID_7_"  style="overflow:visible;"/>
						</clipPath>
						<g class="st10">
							<path class="st5" d="M629,316.3l2.3,0.2c-0.3,0-0.5,0-0.8,0l-2.3-0.2C628.4,316.3,628.7,316.3,629,316.3"/>
						</g>
					</g>
				</g>
				<g>
					<polygon class="st5" points="673.4,217.1 675.6,217.3 634.4,217.3 632.2,217.1 					"/>
				</g>
				<g class="st6">
					<g>
						<defs>
							<path id="SVGID_9_" d="M674,217.1l2.3,0.2c4.6,0.4,8.2,5.3,8,11.3l-2.3-0.2C682.1,222.4,678.6,217.5,674,217.1z"/>
						</defs>
						<clipPath id="SVGID_10_">
							<use xlink:href="#SVGID_9_"  style="overflow:visible;"/>
						</clipPath>
						<g class="st11">
							<path class="st12" d="M674,217.1l2.3,0.2c0.1,0,0.3,0,0.4,0l-2.3-0.2C674.2,217.2,674.1,217.1,674,217.1"/>
							<path class="st13" d="M674.3,217.2l2.3,0.2c0.2,0,0.4,0.1,0.5,0.1l-2.3-0.2C674.7,217.2,674.5,217.2,674.3,217.2"/>
							<path class="st14" d="M674.9,217.3l2.3,0.2c0.2,0,0.3,0.1,0.5,0.1l-2.3-0.2C675.2,217.3,675,217.3,674.9,217.3"/>
							<path class="st15" d="M675.3,217.4l2.3,0.2c0.2,0,0.3,0.1,0.5,0.2l-2.3-0.2C675.6,217.5,675.5,217.4,675.3,217.4"/>
							<path class="st16" d="M675.8,217.5l2.3,0.2c0.1,0.1,0.3,0.1,0.4,0.2l-2.3-0.2C676.1,217.7,675.9,217.6,675.8,217.5"/>
							<path class="st17" d="M676.2,217.7l2.3,0.2c0.1,0.1,0.3,0.1,0.4,0.2l-2.3-0.2C676.5,217.8,676.4,217.8,676.2,217.7"/>
							<path class="st18" d="M676.6,217.9l2.3,0.2c0.1,0.1,0.3,0.1,0.4,0.2l-2.3-0.2C676.9,218.1,676.8,218,676.6,217.9"/>
							<path class="st19" d="M677.1,218.1l2.3,0.2c0.1,0.1,0.3,0.2,0.4,0.3l-2.3-0.2C677.3,218.3,677.2,218.2,677.1,218.1"/>
							<path class="st20" d="M677.4,218.4l2.3,0.2c0.1,0.1,0.3,0.2,0.4,0.3l-2.3-0.2C677.7,218.6,677.6,218.5,677.4,218.4"/>
							<path class="st21" d="M677.8,218.7l2.3,0.2c0.1,0.1,0.3,0.2,0.4,0.3l-2.3-0.2C678.1,218.9,678,218.8,677.8,218.7"/>
							<path class="st22" d="M678.2,219l2.3,0.2c0.1,0.1,0.3,0.2,0.4,0.4l-2.3-0.2C678.5,219.2,678.4,219.1,678.2,219"/>
							<path class="st23" d="M678.6,219.3l2.3,0.2c0.1,0.1,0.3,0.3,0.4,0.4l-2.3-0.2C678.9,219.6,678.7,219.5,678.6,219.3"/>
							<path class="st24" d="M679,219.7l2.3,0.2c0.1,0.1,0.3,0.3,0.4,0.5l-2.3-0.2C679.3,220,679.1,219.9,679,219.7"/>
							<path class="st25" d="M679.4,220.2l2.3,0.2c0.1,0.2,0.3,0.4,0.4,0.5l-2.3-0.2C679.7,220.6,679.5,220.4,679.4,220.2"/>
							<path class="st26" d="M679.8,220.7l2.3,0.2c0.2,0.2,0.3,0.4,0.4,0.7l-2.3-0.2C680.1,221.2,679.9,221,679.8,220.7"/>
							<path class="st27" d="M680.2,221.4l2.3,0.2c0.2,0.3,0.3,0.6,0.5,0.9l-2.3-0.2C680.6,222,680.4,221.7,680.2,221.4"/>
							<path class="st28" d="M680.7,222.3l2.3,0.2c0.6,1.3,1.1,2.9,1.2,4.5l-2.3-0.2C681.8,225.2,681.3,223.7,680.7,222.3"/>
							<path class="st27" d="M681.9,226.9l2.3,0.2c0,0.4,0,0.7,0,1.1l-2.3-0.2C681.9,227.6,681.9,227.2,681.9,226.9"/>
							<path class="st26" d="M681.9,228l2.3,0.2c0,0.1,0,0.3,0,0.4l-2.3-0.2C681.9,228.3,681.9,228.1,681.9,228"/>
						</g>
					</g>
				</g>
				<g class="st6">
					<g>
						<defs>
							<path id="SVGID_11_" d="M674,217.1l2.3,0.2c-0.2,0-0.4,0-0.6,0l-2.3-0.2C673.6,217.1,673.8,217.1,674,217.1z"/>
						</defs>
						<clipPath id="SVGID_12_">
							<use xlink:href="#SVGID_11_"  style="overflow:visible;"/>
						</clipPath>
						<g class="st29">
							<path class="st5" d="M674,217.1l2.3,0.2c-0.2,0-0.4,0-0.6,0l-2.3-0.2C673.6,217.1,673.8,217.1,674,217.1"/>
						</g>
					</g>
				</g>
				<g>
					<polygon class="st30" points="670.3,312.6 672.5,312.8 631.3,312.8 629.1,312.6 					"/>
				</g>
				<g>
					<polygon class="st5" points="670.2,316.3 672.4,316.5 631.2,316.5 629,316.3 					"/>
				</g>
				<g class="st6">
					<g>
						<defs>
							<path id="SVGID_13_" d="M679,309.5c-1.7,2.1-4,3.3-6.4,3.3l-2.3-0.2c2.5,0,4.7-1.3,6.4-3.3
								C677.4,309.3,678.2,309.4,679,309.5z"/>
						</defs>
						<clipPath id="SVGID_14_">
							<use xlink:href="#SVGID_13_"  style="overflow:visible;"/>
						</clipPath>
						<g class="st31">
							<path class="st12" d="M676.9,309l2.3,0.2c-0.1,0.2-0.3,0.4-0.4,0.5l-2.3-0.2C676.6,309.4,676.8,309.2,676.9,309"/>
							<path class="st32" d="M676.5,309.5l2.3,0.2c-0.2,0.2-0.4,0.4-0.5,0.6l-2.3-0.2C676.1,309.9,676.3,309.7,676.5,309.5"/>
							<path class="st33" d="M675.9,310.1l2.3,0.2c-0.2,0.2-0.5,0.4-0.7,0.6l-2.3-0.2C675.4,310.6,675.7,310.3,675.9,310.1"/>
							<path class="st9" d="M675.2,310.8l2.3,0.2c-1.4,1.2-3.1,1.8-4.9,1.8l-2.3-0.2C672.1,312.6,673.8,311.9,675.2,310.8"/>
						</g>
					</g>
				</g>
				<g class="st6">
					<g>
						<defs>
							<path id="SVGID_15_" d="M674.3,213.5l2.3,0.2c6.1,0.5,10.8,7,10.6,15l-2.3-0.2C685.1,220.5,680.4,214,674.3,213.5z"/>
						</defs>
						<clipPath id="SVGID_16_">
							<use xlink:href="#SVGID_15_"  style="overflow:visible;"/>
						</clipPath>
						<g class="st34">
							<path class="st5" d="M674.3,213.5l2.3,0.2c0.2,0,0.3,0,0.5,0.1l-2.3-0.2C674.6,213.5,674.4,213.5,674.3,213.5"/>
							<path class="st5" d="M674.8,213.5l2.3,0.2c0.2,0,0.5,0.1,0.7,0.1l-2.3-0.2C675.2,213.6,675,213.5,674.8,213.5"/>
							<path class="st5" d="M675.5,213.6l2.3,0.2c0.2,0,0.4,0.1,0.6,0.2l-2.3-0.2C675.9,213.7,675.7,213.7,675.5,213.6"/>
							<path class="st5" d="M676.1,213.8l2.3,0.2c0.2,0.1,0.4,0.1,0.6,0.2l-2.3-0.2C676.5,213.9,676.3,213.9,676.1,213.8"/>
							<path class="st5" d="M676.7,214l2.3,0.2c0.2,0.1,0.4,0.1,0.6,0.2l-2.3-0.2C677.1,214.1,676.9,214.1,676.7,214"/>
							<path class="st5" d="M677.3,214.2l2.3,0.2c0.2,0.1,0.4,0.2,0.5,0.3l-2.3-0.2C677.7,214.4,677.5,214.3,677.3,214.2"/>
							<path class="st5" d="M677.8,214.5l2.3,0.2c0.2,0.1,0.4,0.2,0.5,0.3l-2.3-0.2C678.2,214.7,678,214.6,677.8,214.5"/>
							<path class="st5" d="M678.4,214.8l2.3,0.2c0.2,0.1,0.3,0.2,0.5,0.3l-2.3-0.2C678.7,215,678.5,214.9,678.4,214.8"/>
							<path class="st5" d="M678.9,215.1l2.3,0.2c0.2,0.1,0.3,0.2,0.5,0.4l-2.3-0.2C679.2,215.4,679.1,215.2,678.9,215.1"/>
							<path class="st5" d="M679.4,215.5l2.3,0.2c0.2,0.1,0.3,0.3,0.5,0.4l-2.3-0.2C679.8,215.8,679.6,215.6,679.4,215.5"/>
							<path class="st5" d="M679.9,215.9l2.3,0.2c0.2,0.1,0.3,0.3,0.5,0.5l-2.3-0.2C680.3,216.2,680.1,216.1,679.9,215.9"/>
							<path class="st5" d="M680.4,216.4l2.3,0.2c0.2,0.2,0.3,0.3,0.5,0.5l-2.3-0.2C680.8,216.7,680.6,216.6,680.4,216.4"/>
							<path class="st5" d="M680.9,216.9l2.3,0.2c0.2,0.2,0.4,0.4,0.5,0.6l-2.3-0.2C681.3,217.3,681.1,217.1,680.9,216.9"/>
							<path class="st5" d="M681.5,217.5l2.3,0.2c0.2,0.2,0.4,0.5,0.5,0.7l-2.3-0.2C681.8,218,681.6,217.8,681.5,217.5"/>
							<path class="st5" d="M682,218.2l2.3,0.2c0.2,0.3,0.4,0.6,0.6,0.9l-2.3-0.2C682.4,218.8,682.2,218.5,682,218.2"/>
							<path class="st5" d="M682.6,219.1l2.3,0.2c0.2,0.4,0.4,0.8,0.6,1.2l-2.3-0.2C683,219.9,682.8,219.5,682.6,219.1"/>
							<path class="st5" d="M683.2,220.3l2.3,0.2c0.8,1.8,1.4,3.8,1.6,6l-2.3-0.2C684.6,224.2,684.1,222.1,683.2,220.3"/>
							<path class="st5" d="M684.8,226.4l2.3,0.2c0,0.5,0.1,1,0.1,1.5l-2.3-0.2C684.8,227.3,684.8,226.9,684.8,226.4"/>
							<path class="st5" d="M684.8,227.8l2.3,0.2c0,0.2,0,0.4,0,0.6l-2.3-0.2C684.8,228.2,684.8,228,684.8,227.8"/>
						</g>
					</g>
				</g>
				<g class="st6">
					<g>
						<defs>
							<path id="SVGID_17_" d="M680.9,306.2c-0.5,1.2-1.1,2.3-1.9,3.3c-0.8-0.1-1.5-0.1-2.3-0.2c0.8-0.9,1.4-2,1.9-3.3
								C679.4,306.1,680.1,306.1,680.9,306.2z"/>
						</defs>
						<clipPath id="SVGID_18_">
							<use xlink:href="#SVGID_17_"  style="overflow:visible;"/>
						</clipPath>
						<g class="st35">
							<path class="st18" d="M678.6,306l2.3,0.2c-0.1,0.2-0.1,0.3-0.2,0.5l-2.3-0.2C678.5,306.3,678.5,306.1,678.6,306"/>
							<path class="st17" d="M678.4,306.5l2.3,0.2c-0.1,0.2-0.2,0.3-0.2,0.5l-2.3-0.2C678.2,306.8,678.3,306.6,678.4,306.5"/>
							<path class="st16" d="M678.2,307l2.3,0.2c-0.1,0.2-0.2,0.3-0.3,0.5l-2.3-0.2C678,307.3,678.1,307.2,678.2,307"/>
							<path class="st15" d="M677.9,307.5l2.3,0.2c-0.1,0.2-0.2,0.3-0.3,0.5l-2.3-0.2C677.7,307.8,677.8,307.6,677.9,307.5"/>
							<path class="st14" d="M677.6,308l2.3,0.2c-0.1,0.2-0.2,0.3-0.3,0.5l-2.3-0.2C677.4,308.3,677.5,308.2,677.6,308"/>
							<path class="st13" d="M677.3,308.5l2.3,0.2c-0.1,0.2-0.2,0.4-0.4,0.5l-2.3-0.2C677,308.8,677.2,308.7,677.3,308.5"/>
							<path class="st12" d="M676.9,309l2.3,0.2c-0.1,0.2-0.3,0.4-0.4,0.5l-2.3-0.2C676.6,309.4,676.8,309.2,676.9,309"/>
						</g>
					</g>
				</g>
				<g class="st6">
					<g>
						<defs>
							<path id="SVGID_19_" d="M680.9,306.2c-0.8-0.1-1.5-0.1-2.3-0.2c0-0.1,0.1-0.2,0.1-0.3c0.8,0.1,1.5,0.1,2.3,0.2
								C680.9,306,680.9,306.1,680.9,306.2z"/>
						</defs>
						<clipPath id="SVGID_20_">
							<use xlink:href="#SVGID_19_"  style="overflow:visible;"/>
						</clipPath>
						<g class="st36">
							<path class="st19" d="M678.8,305.4l2.3,0.2c-0.1,0.2-0.1,0.4-0.2,0.5l-2.3-0.2C678.7,305.8,678.7,305.6,678.8,305.4"/>
							<path class="st18" d="M678.6,306l2.3,0.2c-0.1,0.2-0.1,0.3-0.2,0.5l-2.3-0.2C678.5,306.3,678.5,306.1,678.6,306"/>
						</g>
					</g>
				</g>
				<g>
					<polygon class="st37" points="681.9,228.4 684.2,228.6 681.8,301.5 679.6,301.3 					"/>
				</g>
				<g class="st6">
					<g>
						<defs>
							<path id="SVGID_21_" d="M681.8,301.5c-0.1,1.6-0.3,3.1-0.8,4.4c-0.8-0.1-1.5-0.1-2.3-0.2c0.5-1.4,0.8-2.8,0.8-4.4
								C680.3,301.3,681.2,301.4,681.8,301.5z"/>
						</defs>
						<clipPath id="SVGID_22_">
							<use xlink:href="#SVGID_21_"  style="overflow:visible;"/>
						</clipPath>
						<g class="st38">
							<path class="st26" d="M679.6,301.3l2.3,0.2c0,0.1,0,0.3,0,0.4l-2.3-0.2C679.6,301.6,679.6,301.4,679.6,301.3"/>
							<path class="st25" d="M679.6,301.7l2.3,0.2c0,0.3,0,0.5-0.1,0.8l-2.3-0.2C679.5,302.2,679.5,302,679.6,301.7"/>
							<path class="st24" d="M679.5,302.5l2.3,0.2c0,0.2-0.1,0.5-0.1,0.7l-2.3-0.2C679.4,302.9,679.5,302.7,679.5,302.5"/>
							<path class="st23" d="M679.4,303.1l2.3,0.2c0,0.2-0.1,0.4-0.1,0.6l-2.3-0.2C679.3,303.6,679.4,303.4,679.4,303.1"/>
							<path class="st22" d="M679.3,303.8l2.3,0.2c0,0.2-0.1,0.4-0.1,0.6l-2.3-0.2C679.2,304.2,679.2,304,679.3,303.8"/>
							<path class="st21" d="M679.1,304.4l2.3,0.2c0,0.2-0.1,0.4-0.2,0.6l-2.3-0.2C679,304.7,679.1,304.5,679.1,304.4"/>
							<path class="st20" d="M679,304.9l2.3,0.2c-0.1,0.2-0.1,0.4-0.2,0.5l-2.3-0.2C678.9,305.3,678.9,305.1,679,304.9"/>
							<path class="st19" d="M678.8,305.4l2.3,0.2c-0.1,0.2-0.1,0.4-0.2,0.5l-2.3-0.2C678.7,305.8,678.7,305.6,678.8,305.4"/>
						</g>
					</g>
				</g>
				<g>
					<path class="st39" d="M673.4,217.1c4.9,0,8.8,5.1,8.6,11.3l-2.4,72.8c-0.2,6.2-4.4,11.3-9.3,11.3h-41.2
						c-4.9,0-8.8-5.1-8.6-11.3l2.4-72.8c0.2-6.2,4.4-11.3,9.3-11.3H673.4z"/>
					<g class="st6">
						<g>
							<defs>
								<path id="SVGID_23_" d="M673.4,217.1c4.9,0,8.8,5.1,8.6,11.3l-2.4,72.8c-0.2,6.2-4.4,11.3-9.3,11.3h-41.2
									c-4.9,0-8.8-5.1-8.6-11.3l2.4-72.8c0.2-6.2,4.4-11.3,9.3-11.3H673.4z"/>
							</defs>
							<clipPath id="SVGID_24_">
								<use xlink:href="#SVGID_23_"  style="overflow:visible;"/>
							</clipPath>
							<g class="st40">
								<g>
									<g>
										<g>
											<defs>
												<polyline id="SVGID_25_" points="679.6,301.3 679.3,303.5 678.7,305.7 677.8,307.6 676.7,309.3 675.3,310.7 
													673.8,311.7 672.1,312.4 670.3,312.6 629.1,312.6 627.3,312.4 625.6,311.7 624.1,310.7 622.9,309.3 621.8,307.6 
													621.1,305.7 620.6,303.5 620.5,301.3 622.9,228.4 623.1,226.1 623.7,224 624.6,222.1 625.7,220.4 627.1,219 628.7,218 
													630.4,217.3 632.2,217.1 673.4,217.1 675.1,217.3 676.8,218 678.3,219 679.6,220.4 680.6,222.1 681.4,224 681.8,226.1 
													681.9,228.4 679.6,301.3 												"/>
											</defs>
											<clipPath id="SVGID_26_">
												<use xlink:href="#SVGID_25_"  style="overflow:visible;"/>
											</clipPath>
											<g class="st41">
												
													<image style="overflow:visible;enable-background:new    ;" width="63" height="97" xlink:href="11A85C85.png"  transform="matrix(0.9841 0 0 0.9897 620.5082 217.1054)">
												</image>
											</g>
										</g>
									</g>
								</g>
							</g>
						</g>
						<g>
							<polygon class="st5" points="684.8,228.4 687.1,228.6 684.7,301.5 682.5,301.3 							"/>
						</g>
						<g>
							<path class="st5" d="M673.5,213.4c6.5,0,11.6,6.7,11.4,15l-2.4,72.8c-0.3,8.3-5.8,15-12.3,15H629c-6.5,0-11.6-6.7-11.4-15
								l2.4-72.8c0.3-8.3,5.8-15,12.3-15L673.5,213.4L673.5,213.4z M679.6,301.3l2.4-72.8c0.2-6.2-3.6-11.3-8.6-11.3h-41.2
								c-4.9,0-9.1,5.1-9.3,11.3l-2.4,72.8c-0.2,6.2,3.6,11.3,8.6,11.3h41.2C675.2,312.6,679.4,307.5,679.6,301.3"/>
						</g>
						<g class="st6">
							<g>
								<defs>
									<path id="SVGID_27_" d="M682.5,301.3l2.3,0.2c-0.3,8.3-5.8,15-12.3,15l-2.3-0.2C676.7,316.3,682.2,309.5,682.5,301.3z"/>
								</defs>
								<clipPath id="SVGID_28_">
									<use xlink:href="#SVGID_27_"  style="overflow:visible;"/>
								</clipPath>
								<g class="st42">
									<path class="st5" d="M682.5,301.3l2.3,0.2c0,0.2,0,0.4,0,0.6l-2.3-0.2C682.5,301.7,682.5,301.5,682.5,301.3"/>
									<path class="st5" d="M682.4,301.9l2.3,0.2c0,0.3-0.1,0.7-0.1,1l-2.3-0.2C682.4,302.5,682.4,302.2,682.4,301.9"/>
									<path class="st5" d="M682.4,302.9l2.3,0.2c0,0.3-0.1,0.6-0.1,0.9l-2.3-0.2C682.3,303.5,682.3,303.2,682.4,302.9"/>
									<path class="st5" d="M682.2,303.8l2.3,0.2c0,0.3-0.1,0.5-0.2,0.8l-2.3-0.2C682.1,304.3,682.2,304,682.2,303.8"/>
									<path class="st5" d="M682.1,304.6l2.3,0.2c-0.1,0.3-0.1,0.5-0.2,0.8l-2.3-0.2C682,305.1,682,304.8,682.1,304.6"/>
									<path class="st5" d="M681.9,305.4l2.3,0.2c-0.1,0.2-0.1,0.5-0.2,0.7l-2.3-0.2C681.8,305.8,681.8,305.6,681.9,305.4"/>
									<path class="st5" d="M681.7,306.1l2.3,0.2c-0.1,0.2-0.1,0.5-0.2,0.7l-2.3-0.2C681.5,306.6,681.6,306.3,681.7,306.1"/>
									<path class="st5" d="M681.5,306.8l2.3,0.2c-0.1,0.2-0.2,0.5-0.3,0.7l-2.3-0.2C681.3,307.3,681.4,307,681.5,306.8"/>
									<path class="st5" d="M681.2,307.5l2.3,0.2c-0.1,0.2-0.2,0.5-0.3,0.7l-2.3-0.2C681,307.9,681.1,307.7,681.2,307.5"/>
									<path class="st5" d="M680.9,308.2l2.3,0.2c-0.1,0.2-0.2,0.4-0.3,0.7l-2.3-0.2C680.7,308.6,680.8,308.4,680.9,308.2"/>
									<path class="st5" d="M680.6,308.8l2.3,0.2c-0.1,0.2-0.2,0.4-0.3,0.7l-2.3-0.2C680.4,309.3,680.5,309.1,680.6,308.8"/>
									<path class="st5" d="M680.3,309.5l2.3,0.2c-0.1,0.2-0.3,0.4-0.4,0.7l-2.3-0.2C680,309.9,680.1,309.7,680.3,309.5"/>
									<path class="st5" d="M679.9,310.2l2.3,0.2c-0.1,0.2-0.3,0.5-0.4,0.7l-2.3-0.2C679.6,310.6,679.7,310.4,679.9,310.2"/>
									<path class="st5" d="M679.4,310.8l2.3,0.2c-0.2,0.2-0.3,0.5-0.5,0.7l-2.3-0.2C679.1,311.3,679.3,311.1,679.4,310.8"/>
									<path class="st5" d="M678.9,311.5l2.3,0.2c-0.2,0.2-0.4,0.5-0.6,0.7l-2.3-0.2C678.6,312,678.7,311.8,678.9,311.5"/>
									<path class="st5" d="M678.4,312.2l2.3,0.2c-0.2,0.3-0.5,0.5-0.7,0.8l-2.3-0.2C677.9,312.7,678.1,312.5,678.4,312.2"/>
									<path class="st5" d="M677.6,313l2.3,0.2c-0.3,0.3-0.6,0.6-1,0.9l-2.3-0.2C677,313.6,677.3,313.3,677.6,313"/>
									<path class="st5" d="M676.7,313.8l2.3,0.2c-1.9,1.5-4.1,2.4-6.5,2.4l-2.3-0.2C672.5,316.3,674.8,315.4,676.7,313.8"/>
								</g>
							</g>
						</g>
					</g>
				</g>
			</g>
			
				<linearGradient id="SVGID_29_" gradientUnits="userSpaceOnUse" x1="533.6517" y1="343.1005" x2="546.5219" y2="164.2722" gradientTransform="matrix(1.0666 0.2177 0.1978 -0.9691 -124.433 308.317)">
				<stop  offset="3.225806e-02" style="stop-color:#B5B5B5"/>
				<stop  offset="7.251940e-02" style="stop-color:#BCBCBC"/>
				<stop  offset="0.3925" style="stop-color:#EDEDED"/>
				<stop  offset="0.5269" style="stop-color:#C8C9CB"/>
				<stop  offset="0.603" style="stop-color:#DCDDDD"/>
				<stop  offset="0.672" style="stop-color:#EAEAEA"/>
				<stop  offset="0.8443" style="stop-color:#ADADAD"/>
				<stop  offset="0.9301" style="stop-color:#949494"/>
			</linearGradient>
			
				<linearGradient id="SVGID_30_" gradientUnits="userSpaceOnUse" x1="376.4073" y1="254.8825" x2="702.5826" y2="254.8825" gradientTransform="matrix(1.0666 0.2177 0.1978 -0.9691 -124.433 308.317)">
				<stop  offset="3.225806e-02" style="stop-color:#D1D1D1"/>
				<stop  offset="0.1173" style="stop-color:#DDDDDD"/>
				<stop  offset="0.2366" style="stop-color:#F4F4F4"/>
				<stop  offset="0.2684" style="stop-color:#E2E2E2"/>
				<stop  offset="0.3079" style="stop-color:#D3D3D3"/>
				<stop  offset="0.3544" style="stop-color:#CACACA"/>
				<stop  offset="0.4247" style="stop-color:#C7C7C7"/>
				<stop  offset="0.5621" style="stop-color:#C9C9C9"/>
				<stop  offset="0.6115" style="stop-color:#D0D0D0"/>
				<stop  offset="0.6467" style="stop-color:#DBDBDB"/>
				<stop  offset="0.672" style="stop-color:#EAEAEA"/>
				<stop  offset="0.7652" style="stop-color:#C6C6C6"/>
				<stop  offset="0.8727" style="stop-color:#A2A2A2"/>
				<stop  offset="0.9301" style="stop-color:#949494"/>
			</linearGradient>
			<path class="st43" d="M405.1,79.5L661,254.1c3.2,2.2,4.7,4.9,4.1,7.4l-5.3,22.1c-1.6,6.7-16.6,7.8-25.4,1.9L344.7,89.8
				c-8.1-5.5-4.3-12.8,6.9-13.1l39.2-1C396,75.5,401.4,77,405.1,79.5z"/>
			<g>
				<g>
					
						<linearGradient id="SVGID_31_" gradientUnits="userSpaceOnUse" x1="534.0821" y1="460.4234" x2="541.4258" y2="358.3844" gradientTransform="matrix(1.0586 0.6904 0.2286 -0.3505 -161.618 -51.9428)">
						<stop  offset="0.1505" style="stop-color:#B5B5B5"/>
						<stop  offset="0.3281" style="stop-color:#DFDFDF"/>
						<stop  offset="0.4247" style="stop-color:#F0F0F0"/>
						<stop  offset="0.6205" style="stop-color:#EEEEEE"/>
						<stop  offset="0.672" style="stop-color:#EAEAEA"/>
						<stop  offset="0.7652" style="stop-color:#C6C6C6"/>
						<stop  offset="0.8727" style="stop-color:#A2A2A2"/>
						<stop  offset="0.9301" style="stop-color:#949494"/>
					</linearGradient>
					<path class="st44" d="M408.6,93.4L657.5,276c3.1,2.3,4.5,4.1,3.7,5l-7.1,7.8c-2.1,2.4-17.6-3.3-26.2-9.5l-282-205.9
						c-7.9-5.8-3.4-7.5,8.1-3.1l40.2,15.5C399.5,87.9,405,90.8,408.6,93.4z"/>
				</g>
			</g>
			
				<linearGradient id="SVGID_32_" gradientUnits="userSpaceOnUse" x1="555.5" y1="363.5" x2="555.5" y2="363.5" gradientTransform="matrix(1 0 0 -1 0 476)">
				<stop  offset="3.225806e-02" style="stop-color:#B5B5B5"/>
				<stop  offset="4.430964e-02" style="stop-color:#BEBEBE"/>
				<stop  offset="7.908797e-02" style="stop-color:#D3D3D3"/>
				<stop  offset="0.1181" style="stop-color:#E2E2E2"/>
				<stop  offset="0.1644" style="stop-color:#EAEAEA"/>
				<stop  offset="0.2366" style="stop-color:#EDEDED"/>
				<stop  offset="0.4247" style="stop-color:#F0F0F0"/>
				<stop  offset="0.6205" style="stop-color:#EEEEEE"/>
				<stop  offset="0.672" style="stop-color:#EAEAEA"/>
				<stop  offset="0.7652" style="stop-color:#C6C6C6"/>
				<stop  offset="0.8727" style="stop-color:#A2A2A2"/>
				<stop  offset="0.9301" style="stop-color:#949494"/>
			</linearGradient>
			<path class="st45" d="M555.5,112.5"/>
			<g id="XMLID_2_">
				<path id="XMLID_9_" d="M443.8,66.9c0,0,2-4.3,18.8-5.7c0,0,30.7-5,43.4,10.1l2.5,18.6c0,0-8.5-14.4-47.8-11.1
					c0,0-12.2,1.9-18.6,5.5L443.8,66.9z"/>
				
					<linearGradient id="XMLID_3_" gradientUnits="userSpaceOnUse" x1="443.574" y1="435.7736" x2="508.5448" y2="435.1231" gradientTransform="matrix(1 0 0 -1 0 476)">
					<stop  offset="1.107606e-02" style="stop-color:#9C9C9C"/>
					<stop  offset="0.1418" style="stop-color:#C8CACB"/>
					<stop  offset="0.1865" style="stop-color:#D7D8D9"/>
					<stop  offset="0.2591" style="stop-color:#E8E8E9"/>
					<stop  offset="0.3496" style="stop-color:#F3F4F4"/>
					<stop  offset="0.4766" style="stop-color:#FAFAFA"/>
					<stop  offset="0.8291" style="stop-color:#FCFCFC"/>
					<stop  offset="0.8548" style="stop-color:#DDDDDD"/>
					<stop  offset="0.8841" style="stop-color:#C1C1C1"/>
					<stop  offset="0.9134" style="stop-color:#ACACAC"/>
					<stop  offset="0.9424" style="stop-color:#A0A0A0"/>
					<stop  offset="0.9709" style="stop-color:#9C9C9C"/>
				</linearGradient>
				<path id="XMLID_8_" class="st46" d="M443.3,67.6c0,0,6.3-31.9,13.2-48.1c0,0,4.7-18.1,40.9-3.8c0,0,4.4,1.9,5.8,7.4
					c0,0,6.9,24.4,4.7,48.1C507.8,71.2,476.2,53.6,443.3,67.6z"/>
				
					<linearGradient id="XMLID_6_" gradientUnits="userSpaceOnUse" x1="422.734" y1="-316.0442" x2="488.8208" y2="-316.7058" gradientTransform="matrix(0.9986 5.277775e-02 -5.277775e-02 0.9986 3.2631 363.0271)">
					<stop  offset="1.107606e-02" style="stop-color:#9C9C9C"/>
					<stop  offset="0.3927" style="stop-color:#C8CACB"/>
					<stop  offset="0.4114" style="stop-color:#D7D8D9"/>
					<stop  offset="0.4418" style="stop-color:#E8E8E9"/>
					<stop  offset="0.4796" style="stop-color:#F3F4F4"/>
					<stop  offset="0.5327" style="stop-color:#FAFAFA"/>
					<stop  offset="0.68" style="stop-color:#FCFCFC"/>
					<stop  offset="0.7328" style="stop-color:#DDDDDD"/>
					<stop  offset="0.7929" style="stop-color:#C1C1C1"/>
					<stop  offset="0.853" style="stop-color:#ACACAC"/>
					<stop  offset="0.9125" style="stop-color:#A0A0A0"/>
					<stop  offset="0.9709" style="stop-color:#9C9C9C"/>
				</linearGradient>
				<path id="XMLID_5_" class="st47" d="M505,74c-0.2,4.4-13.8,7.2-30.4,6.3s-29.8-5.1-29.6-9.5c0.2-4.4,13.8-7.2,30.4-6.3
					C492,65.4,505.2,69.6,505,74z M508.1,72.9c0.3-5.6-14.2-10.8-32.5-11.8c-18.2-1-33.2,2.8-33.5,8.3c-0.3,5.6,14.2,10.8,32.5,11.8
					S507.8,78.5,508.1,72.9z"/>
				
					<linearGradient id="XMLID_7_" gradientUnits="userSpaceOnUse" x1="440" y1="397.7269" x2="509.3" y2="397.7269" gradientTransform="matrix(1 0 0 -1 0 476)">
					<stop  offset="7.439700e-03" style="stop-color:#0D1940"/>
					<stop  offset="2.494834e-02" style="stop-color:#193055"/>
					<stop  offset="4.931266e-02" style="stop-color:#264B73"/>
					<stop  offset="7.468065e-02" style="stop-color:#30628F"/>
					<stop  offset="0.1009" style="stop-color:#3677A8"/>
					<stop  offset="0.1283" style="stop-color:#3A86BC"/>
					<stop  offset="0.1578" style="stop-color:#3B91CB"/>
					<stop  offset="0.1927" style="stop-color:#3B95D1"/>
					<stop  offset="0.2083" style="stop-color:#5CA0D7"/>
					<stop  offset="0.2529" style="stop-color:#9FC1E6"/>
					<stop  offset="0.2903" style="stop-color:#D0DFF2"/>
					<stop  offset="0.3186" style="stop-color:#F0F4FB"/>
					<stop  offset="0.3345" style="stop-color:#FFFFFF"/>
					<stop  offset="0.3977" style="stop-color:#FCFDFE"/>
					<stop  offset="0.4205" style="stop-color:#F3F7FC"/>
					<stop  offset="0.4367" style="stop-color:#E6EEF9"/>
					<stop  offset="0.4499" style="stop-color:#D5E4F5"/>
					<stop  offset="0.4611" style="stop-color:#BED7F0"/>
					<stop  offset="0.471" style="stop-color:#A3C8EA"/>
					<stop  offset="0.4798" style="stop-color:#83B8E4"/>
					<stop  offset="0.4873" style="stop-color:#5FA9DD"/>
					<stop  offset="0.5716" style="stop-color:#5FA8DB"/>
					<stop  offset="0.602" style="stop-color:#5CA2D4"/>
					<stop  offset="0.6237" style="stop-color:#5899CA"/>
					<stop  offset="0.6412" style="stop-color:#538CBE"/>
					<stop  offset="0.6562" style="stop-color:#4B7DAF"/>
					<stop  offset="0.6695" style="stop-color:#426C9F"/>
					<stop  offset="0.6815" style="stop-color:#365A8E"/>
					<stop  offset="0.6922" style="stop-color:#2A467D"/>
					<stop  offset="0.6982" style="stop-color:#243973"/>
					<stop  offset="0.8328" style="stop-color:#243872"/>
					<stop  offset="0.8813" style="stop-color:#23376F"/>
					<stop  offset="0.9159" style="stop-color:#223369"/>
					<stop  offset="0.9439" style="stop-color:#1F2F61"/>
					<stop  offset="0.9675" style="stop-color:#1A2856"/>
					<stop  offset="0.9884" style="stop-color:#141F49"/>
					<stop  offset="0.9891" style="stop-color:#141F48"/>
				</linearGradient>
				<path id="XMLID_4_" class="st48" d="M442.2,71.5c0,0,2.2-5.1,19.5-6.4c0,0,32.4-2.8,45.5,10.2l2.1,16.4c0,0-9.6-12.8-49.5-9.7
					c0,0-13.4,1.9-19.8,5.3L442.2,71.5z"/>
			</g>
			<path class="st1" d="M135.8,206.7"/>
			
				<linearGradient id="SVGID_33_" gradientUnits="userSpaceOnUse" x1="165.8" y1="306.8" x2="431.2" y2="306.8" gradientTransform="matrix(1 0 0 -1 0 476)">
				<stop  offset="0" style="stop-color:#96989A"/>
				<stop  offset="9.139785e-02" style="stop-color:#2C2C2C"/>
				<stop  offset="0.3441" style="stop-color:#5E5F61"/>
				<stop  offset="0.7903" style="stop-color:#B5B5B5"/>
				<stop  offset="0.8012" style="stop-color:#AEAEAE"/>
				<stop  offset="0.833" style="stop-color:#9F9F9F"/>
				<stop  offset="0.871" style="stop-color:#979797"/>
				<stop  offset="0.9301" style="stop-color:#949494"/>
			</linearGradient>
			<polygon class="st49" points="165.8,186.7 283.8,132.9 431.2,159.8 306.1,205.5 			"/>
			<polygon class="st50" points="174.5,184.9 192.7,178.5 232.3,183.5 225.9,184.9 203.4,183.5 174.5,186.7 			"/>
			<path class="st51" d="M160.2,183.3c0,0,1.8,2.9,5.5,3.5l18.6-8.3l22.5,1.8l89-35.4l-39-12L160.2,183.3z"/>
			
				<linearGradient id="SVGID_34_" gradientUnits="userSpaceOnUse" x1="48.8" y1="329.4" x2="290" y2="329.4" gradientTransform="matrix(1 0 0 -1 0 476)">
				<stop  offset="0" style="stop-color:#96989A"/>
				<stop  offset="9.139785e-02" style="stop-color:#2C2C2C"/>
				<stop  offset="0.4624" style="stop-color:#B5B5B5"/>
				<stop  offset="0.4987" style="stop-color:#AEAEAE"/>
				<stop  offset="0.6053" style="stop-color:#9F9F9F"/>
				<stop  offset="0.7322" style="stop-color:#979797"/>
				<stop  offset="0.9301" style="stop-color:#949494"/>
			</linearGradient>
			<path class="st52" d="M48.8,155.4l95.3-38.7L290,142c0,0-8.7,5.5-10.6,3.7c0,0,2.8,7.4-5.5,6.9l-8.7-2.3l-17.5,7.4
				c0,0,1.8,4.1-3.2,6.9h-12.9l-16.1,3.2c0,0,3.2,7.8-4.1,8.7l-12-2.8l-10.1,2.8L48.8,155.4z"/>
			
				<linearGradient id="SVGID_35_" gradientUnits="userSpaceOnUse" x1="45.2" y1="333" x2="286.4" y2="333" gradientTransform="matrix(1 0 0 -1 0 476)">
				<stop  offset="3.225806e-02" style="stop-color:#525252"/>
				<stop  offset="4.917105e-02" style="stop-color:#585858"/>
				<stop  offset="0.1526" style="stop-color:#797979"/>
				<stop  offset="0.2643" style="stop-color:#949494"/>
				<stop  offset="0.3853" style="stop-color:#A9A9A9"/>
				<stop  offset="0.5203" style="stop-color:#B8B8B8"/>
				<stop  offset="0.6805" style="stop-color:#C0C0C0"/>
				<stop  offset="0.9301" style="stop-color:#C3C3C3"/>
			</linearGradient>
			<path class="st53" d="M45.2,151.8l95.3-38.7l145.9,25.3c0,0-8.7,5.5-10.6,3.7c0,0,2.8,7.4-5.5,6.9l-8.7-2.3l-17.5,7.4
				c0,0,1.8,4.1-3.2,6.9H228l-16.1,3.2c0,0,3.2,7.8-4.1,8.7l-12-2.8l-10.1,2.8L45.2,151.8z"/>
			<g>
				<polygon class="st51" points="176.1,186.7 195.8,191.3 195,203.3 203.3,184.9 192.7,180.3 				"/>
				<path class="st54" d="M184.4,184.9l2.3,20.8c0,0,3.5,0.1,8.3-2.4l1.5-21.2C196.5,182.1,189.3,181.6,184.4,184.9z"/>
				<polygon class="st51" points="176.1,186.7 192.7,180.3 203.3,182.1 203.3,184.9 199.5,186.7 197.7,183.3 192.7,182.1 				"/>
			</g>
			<g>
				<polygon class="st51" points="295.3,144.1 316.8,150.3 315.3,163.5 325.5,143.6 314,137.9 				"/>
				<path class="st54" d="M304.6,142.5l1.4,23.1c0,0,3.8,0.3,9.3-2.2l2.8-23.4C318.1,140,310.1,139.1,304.6,142.5z"/>
				<polygon class="st51" points="295.3,144.1 314,137.9 325.6,140.4 325.5,143.6 321.2,145.4 319.3,141.4 313.9,139.8 				"/>
			</g>
			<g id="Bulbs">
				<g>
					<ellipse cx="76.9" cy="152.2" rx="8.3" ry="2.8"/>
					<ellipse cx="91.2" cy="146.7" rx="8.3" ry="2.8"/>
					<ellipse cx="107.8" cy="139.3" rx="8.3" ry="2.8"/>
					<ellipse cx="124.3" cy="133.8" rx="8.3" ry="2.8"/>
					<ellipse cx="140.9" cy="128.3" rx="8.3" ry="2.8"/>
					<ellipse cx="157.5" cy="122.8" rx="8.3" ry="2.8"/>
					<ellipse cx="99" cy="156.8" rx="8.3" ry="2.8"/>
					<ellipse cx="113.3" cy="151.3" rx="8.3" ry="2.8"/>
					<ellipse cx="129.9" cy="143.9" rx="8.3" ry="2.8"/>
					<ellipse cx="146.4" cy="138.4" rx="8.3" ry="2.8"/>
					<ellipse cx="163" cy="132.9" rx="8.3" ry="2.8"/>
					<ellipse cx="179.6" cy="127.4" rx="8.3" ry="2.8"/>
					<ellipse cx="122.7" cy="161.4" rx="8.3" ry="2.8"/>
					<ellipse cx="137" cy="155.9" rx="8.3" ry="2.8"/>
					<ellipse cx="153.6" cy="148.5" rx="8.3" ry="2.8"/>
					<ellipse cx="170.1" cy="143" rx="8.3" ry="2.8"/>
					<ellipse cx="186.7" cy="137.5" rx="8.3" ry="2.8"/>
					<ellipse cx="203.3" cy="132" rx="8.3" ry="2.8"/>
					<ellipse cx="147.6" cy="164.2" rx="8.3" ry="2.8"/>
					<ellipse cx="161.9" cy="158.7" rx="8.3" ry="2.8"/>
					<ellipse cx="178.4" cy="151.3" rx="8.3" ry="2.8"/>
					<ellipse cx="195" cy="145.8" rx="8.3" ry="2.8"/>
					<ellipse cx="211.6" cy="140.2" rx="8.3" ry="2.8"/>
					<ellipse cx="228.2" cy="134.7" rx="8.3" ry="2.8"/>
					<ellipse cx="170.1" cy="169.7" rx="8.3" ry="2.8"/>
					<ellipse cx="184.4" cy="164.2" rx="8.3" ry="2.8"/>
					<ellipse cx="201" cy="156.8" rx="8.3" ry="2.8"/>
					<ellipse cx="217.6" cy="151.3" rx="8.3" ry="2.8"/>
					<ellipse cx="234.1" cy="145.8" rx="8.3" ry="2.8"/>
					<ellipse cx="250.7" cy="140.2" rx="8.3" ry="2.8"/>
				</g>
				<g id="BulbsColorGroup">
					<ellipse id="BulbColor_29_" class="st55off" cx="76.9" cy="154.1" rx="8.3" ry="2.8"/>
					<ellipse id="BulbColor_28_" class="st55off" cx="91.2" cy="148.5" rx="8.3" ry="2.8"/>
					<ellipse id="BulbColor_27_" class="st55off" cx="107.8" cy="141.2" rx="8.3" ry="2.8"/>
					<ellipse id="BulbColor_26_" class="st55off" cx="124.3" cy="135.6" rx="8.3" ry="2.8"/>
					<ellipse id="BulbColor_25_" class="st55off" cx="140.9" cy="130.1" rx="8.3" ry="2.8"/>
					<ellipse id="BulbColor_24_" class="st55off" cx="157.5" cy="124.6" rx="8.3" ry="2.8"/> /<!-- first row ends here -->
					<ellipse id="BulbColor_23_" class="st55off" cx="99" cy="158.7" rx="8.3" ry="2.8"/> 
					<ellipse id="BulbColor_22_" class="st55off" cx="113.3" cy="153.1" rx="8.3" ry="2.8"/>
					<ellipse id="BulbColor_21_" class="st55off" cx="129.9" cy="145.8" rx="8.3" ry="2.8"/>
					<ellipse id="BulbColor_20_" class="st55off" cx="146.4" cy="140.3" rx="8.3" ry="2.8"/>
					<ellipse id="BulbColor_19_" class="st55off" cx="163" cy="134.7" rx="8.3" ry="2.8"/>
					<ellipse id="BulbColor_18_" class="st55off" cx="179.6" cy="129.2" rx="8.3" ry="2.8"/> <!-- second row ends here -->
					<ellipse id="BulbColor_17_" class="st55off" cx="122.7" cy="163.3" rx="8.3" ry="2.8"/>
					<ellipse id="BulbColor_16_" class="st55off" cx="137" cy="157.7" rx="8.3" ry="2.8"/>
					<ellipse id="BulbColor_15_" class="st55off" cx="153.6" cy="150.4" rx="8.3" ry="2.8"/>
					<ellipse id="BulbColor_14_" class="st55off" cx="170.1" cy="144.9" rx="8.3" ry="2.8"/>
					<ellipse id="BulbColor_13_" class="st55off" cx="186.7" cy="139.3" rx="8.3" ry="2.8"/>
					<ellipse id="BulbColor_12_" class="st55off" cx="203.3" cy="133.8" rx="8.3" ry="2.8"/> <!-- third row ends here -->
					<ellipse id="BulbColor_11_" class="st55off" cx="147.6" cy="166" rx="8.3" ry="2.8"/>
					<ellipse id="BulbColor_10_" class="st55off" cx="161.9" cy="160.5" rx="8.3" ry="2.8"/>
					<ellipse id="BulbColor_9_" class="st55off" cx="178.4" cy="153.1" rx="8.3" ry="2.8"/>
					<ellipse id="BulbColor_8_" class="st55off" cx="195" cy="147.6" rx="8.3" ry="2.8"/>
					<ellipse id="BulbColor_7_" class="st55off" cx="211.6" cy="142.1" rx="8.3" ry="2.8"/>
					<ellipse id="BulbColor_6_" class="st55off" cx="228.2" cy="136.6" rx="8.3" ry="2.8"/> <!-- fourth row ends here -->
					<ellipse id="BulbColor_5_" class="st55off" cx="170.1" cy="171.6" rx="8.3" ry="2.8"/>
					<ellipse id="BulbColor_4_" class="st55off" cx="184.4" cy="166" rx="8.3" ry="2.8"/>
					<ellipse id="BulbColor_3_" class="st55off" cx="201" cy="158.7" rx="8.3" ry="2.8"/>
					<ellipse id="BulbColor_2_" class="st55off" cx="217.6" cy="153.1" rx="8.3" ry="2.8"/>
					<ellipse id="BulbColor_1_" class="st55off" cx="234.1" cy="147.6" rx="8.3" ry="2.8"/>
					<ellipse id="BulbColor_0_" class="st55off" cx="250.7" cy="142.1" rx="8.3" ry="2.8"/> <!-- fifth row ends here -->
				</g>
			</g>
			<g>
				
					<linearGradient id="SVGID_36_" gradientUnits="userSpaceOnUse" x1="420.5371" y1="325.3077" x2="433.0526" y2="393.3666" gradientTransform="matrix(1 0 0 -1 0 476)">
					<stop  offset="3.225806e-02" style="stop-color:#B5B5B5"/>
					<stop  offset="4.430964e-02" style="stop-color:#BEBEBE"/>
					<stop  offset="7.908797e-02" style="stop-color:#D3D3D3"/>
					<stop  offset="0.1181" style="stop-color:#E2E2E2"/>
					<stop  offset="0.1644" style="stop-color:#EAEAEA"/>
					<stop  offset="0.2366" style="stop-color:#EDEDED"/>
					<stop  offset="0.4247" style="stop-color:#F0F0F0"/>
					<stop  offset="0.6205" style="stop-color:#EEEEEE"/>
					<stop  offset="0.672" style="stop-color:#EAEAEA"/>
					<stop  offset="0.7652" style="stop-color:#C6C6C6"/>
					<stop  offset="0.8727" style="stop-color:#A2A2A2"/>
					<stop  offset="0.9301" style="stop-color:#949494"/>
				</linearGradient>
				<path class="st56" d="M333.9,146.2l-28.2-7.1l-14.5,5.1l-5.6,2l-7.5,4l-5-7.4c0,0,50.8-6.8,37.6-50.9c0,0-9.4-23-38.2-27.7
					l265.1,44.9c0,0,40.1,11.7,46.4,44.2L352,114C352.1,114,357.1,132.4,333.9,146.2"/>
				
					<linearGradient id="SVGID_37_" gradientUnits="userSpaceOnUse" x1="306.8" y1="268.8543" x2="538.5702" y2="268.8543" gradientTransform="matrix(1 0 0 -1 0 476)">
					<stop  offset="3.225806e-02" style="stop-color:#9C9C9C"/>
					<stop  offset="0.2319" style="stop-color:#B0B1B1"/>
					<stop  offset="0.4892" style="stop-color:#C6C8C9"/>
					<stop  offset="0.5074" style="stop-color:#C0C2C3"/>
					<stop  offset="0.5839" style="stop-color:#ADAEAE"/>
					<stop  offset="0.6696" style="stop-color:#9F9F9F"/>
					<stop  offset="0.7714" style="stop-color:#969797"/>
					<stop  offset="0.9301" style="stop-color:#949494"/>
				</linearGradient>
				<path class="st57" d="M422.9,232.2l34.2-10.5l14-0.8v2l19,0.4l-1.6-4.3h1.6v-7.1c0,0,20-9.1,24.1-3.8l13.4-0.2v1.8l4.5,0.4
					c0,0,7.7-8.7,6.3-12.1c0,0-115.4-18.5-130.4-15.6c0,0-61.1-4.1-101.2,24c0,0,8.6,10.1,67,18.5L422.9,232.2z"/>
				
					<linearGradient id="SVGID_38_" gradientUnits="userSpaceOnUse" x1="396" y1="266.4" x2="475.6004" y2="266.4" gradientTransform="matrix(1 0 0 -1 0 476)">
					<stop  offset="3.225806e-02" style="stop-color:#636363"/>
					<stop  offset="0.2071" style="stop-color:#A0A0A0"/>
					<stop  offset="0.3981" style="stop-color:#DCDCDC"/>
					<stop  offset="0.4892" style="stop-color:#F4F4F4"/>
					<stop  offset="0.5276" style="stop-color:#C7C7C7"/>
					<stop  offset="0.5677" style="stop-color:#A1A1A1"/>
					<stop  offset="0.6108" style="stop-color:#7F7F7F"/>
					<stop  offset="0.6567" style="stop-color:#646464"/>
					<stop  offset="0.7064" style="stop-color:#4F4F4F"/>
					<stop  offset="0.7619" style="stop-color:#404040"/>
					<stop  offset="0.8276" style="stop-color:#383838"/>
					<stop  offset="0.9301" style="stop-color:#353535"/>
				</linearGradient>
				<path class="st58" d="M435.8,198.7c-22,0-39.8,4.9-39.8,10.9s17.8,10.9,39.8,10.9s39.8-4.9,39.8-10.9
					C475.7,203.6,457.8,198.7,435.8,198.7z M435.8,217.5c-20.1,0-36.4-3.5-36.4-7.8s16.3-7.8,36.4-7.8s36.4,3.5,36.4,7.8
					S455.9,217.5,435.8,217.5z"/>
				
					<linearGradient id="SVGID_39_" gradientUnits="userSpaceOnUse" x1="43.7782" y1="350.75" x2="154.7402" y2="350.75" gradientTransform="matrix(1 0 0 -1 0 476)">
					<stop  offset="3.225806e-02" style="stop-color:#B5B5B5"/>
					<stop  offset="4.430964e-02" style="stop-color:#BEBEBE"/>
					<stop  offset="7.908797e-02" style="stop-color:#D3D3D3"/>
					<stop  offset="0.1181" style="stop-color:#E2E2E2"/>
					<stop  offset="0.1644" style="stop-color:#EAEAEA"/>
					<stop  offset="0.2366" style="stop-color:#EDEDED"/>
					<stop  offset="0.4247" style="stop-color:#F0F0F0"/>
					<stop  offset="0.6205" style="stop-color:#EEEEEE"/>
					<stop  offset="0.672" style="stop-color:#EAEAEA"/>
					<stop  offset="0.7652" style="stop-color:#C6C6C6"/>
					<stop  offset="0.8727" style="stop-color:#A2A2A2"/>
					<stop  offset="0.9301" style="stop-color:#949494"/>
				</linearGradient>
				<path class="st59" d="M1.4,141.2L141.8,86c0,0-0.9,16.6,16.6,28.1l-23,10.1L122,108.8l-90.2,37.5c0,0,9.2,9.7,17,12.9l-29.5,5.3
					C19.4,164.4,1.4,149.9,1.4,141.2z"/>
				
					<linearGradient id="SVGID_40_" gradientUnits="userSpaceOnUse" x1="239.0182" y1="415.0663" x2="227.3449" y2="342.7098" gradientTransform="matrix(1 0 0 -1 0 476)">
					<stop  offset="3.225806e-02" style="stop-color:#B5B5B5"/>
					<stop  offset="4.430964e-02" style="stop-color:#BEBEBE"/>
					<stop  offset="7.908797e-02" style="stop-color:#D3D3D3"/>
					<stop  offset="0.1181" style="stop-color:#E2E2E2"/>
					<stop  offset="0.1644" style="stop-color:#EAEAEA"/>
					<stop  offset="0.2366" style="stop-color:#EDEDED"/>
					<stop  offset="0.4247" style="stop-color:#F0F0F0"/>
					<stop  offset="0.6205" style="stop-color:#EEEEEE"/>
					<stop  offset="0.672" style="stop-color:#EAEAEA"/>
					<stop  offset="0.7652" style="stop-color:#C6C6C6"/>
					<stop  offset="0.8727" style="stop-color:#A2A2A2"/>
					<stop  offset="0.9301" style="stop-color:#949494"/>
				</linearGradient>
				<path class="st60" d="M154.3,44.8l124.8,19.5c0,0,44.9,9.8,39,47.7c0,0-2.8,20.5-31.1,29.2l-138-23c0,0,31.2-9.7,30.2-35.4
					C179.2,82.7,180.5,55.6,154.3,44.8z"/>
				<path class="st61" d="M39.2,153l3.7-4.4c0,0-4.6,6.9,27.2,10.6l109.2,17l-17.6,5.9c0,0-4.3,3.6-6-1.8L36,161.4l12.8-2.3
					L39.2,153z"/>
				
					<linearGradient id="SVGID_41_" gradientUnits="userSpaceOnUse" x1="33" y1="344.95" x2="130.5" y2="344.95" gradientTransform="matrix(1 0 0 -1 0 476)">
					<stop  offset="0.2527" style="stop-color:#B5B5B5"/>
					<stop  offset="0.3053" style="stop-color:#AEAEAE"/>
					<stop  offset="0.4597" style="stop-color:#9F9F9F"/>
					<stop  offset="0.6435" style="stop-color:#979797"/>
					<stop  offset="0.9301" style="stop-color:#949494"/>
				</linearGradient>
				<polygon class="st62" points="122,108.8 130.5,118.5 45.8,153.3 42.9,148.5 39.2,153 33,146.5 				"/>
				
					<linearGradient id="SVGID_42_" gradientUnits="userSpaceOnUse" x1="134.6146" y1="362" x2="134.6146" y2="439.1995" gradientTransform="matrix(1 0 0 -1 0 476)">
					<stop  offset="3.225806e-02" style="stop-color:#B5B5B5"/>
					<stop  offset="4.430964e-02" style="stop-color:#BEBEBE"/>
					<stop  offset="7.908797e-02" style="stop-color:#D3D3D3"/>
					<stop  offset="0.1181" style="stop-color:#E2E2E2"/>
					<stop  offset="0.1644" style="stop-color:#EAEAEA"/>
					<stop  offset="0.2366" style="stop-color:#EDEDED"/>
					<stop  offset="0.4247" style="stop-color:#F0F0F0"/>
					<stop  offset="0.6205" style="stop-color:#EEEEEE"/>
					<stop  offset="0.672" style="stop-color:#EAEAEA"/>
					<stop  offset="0.7652" style="stop-color:#C6C6C6"/>
					<stop  offset="0.8727" style="stop-color:#A2A2A2"/>
					<stop  offset="0.9301" style="stop-color:#949494"/>
				</linearGradient>
				<path class="st63" d="M89.4,50.9c0,0,63.4,1.5,52.8,35c0,0,0,15.7,16.7,28.1c0,0,36.6-15.2,13-56.6c0,0-25.5-23.5-43.6-20.3
					L89.4,50.9z"/>
				
					<linearGradient id="SVGID_43_" gradientUnits="userSpaceOnUse" x1="1.4" y1="379.9" x2="143.0463" y2="379.9" gradientTransform="matrix(1 0 0 -1 0 476)">
					<stop  offset="3.225806e-02" style="stop-color:#B5B5B5"/>
					<stop  offset="5.857578e-02" style="stop-color:#BBBBBB"/>
					<stop  offset="0.1696" style="stop-color:#D0D0D0"/>
					<stop  offset="0.294" style="stop-color:#DFDFDF"/>
					<stop  offset="0.4418" style="stop-color:#E7E7E7"/>
					<stop  offset="0.672" style="stop-color:#EAEAEA"/>
					<stop  offset="0.7652" style="stop-color:#C6C6C6"/>
					<stop  offset="0.8727" style="stop-color:#A2A2A2"/>
					<stop  offset="0.9301" style="stop-color:#949494"/>
				</linearGradient>
				<path class="st64" d="M1.4,141.2c0,0,12.4-64.9,87.9-90.2c0,0,39.9,0.1,51,18.5c0,0,5.1,4.6,1.4,16.5L1.4,141.2z"/>
				<g>
					<g>
						
							<linearGradient id="SVGID_44_" gradientUnits="userSpaceOnUse" x1="294.9104" y1="477.7042" x2="297.933" y2="413.3356" gradientTransform="matrix(0.7448 -0.3333 -0.4075 -0.9104 36.9494 608.0028)">
							<stop  offset="0" style="stop-color:#96989A"/>
							<stop  offset="9.139785e-02" style="stop-color:#2C2C2C"/>
							<stop  offset="0.4624" style="stop-color:#B5B5B5"/>
							<stop  offset="0.4987" style="stop-color:#AEAEAE"/>
							<stop  offset="0.6053" style="stop-color:#9F9F9F"/>
							<stop  offset="0.7322" style="stop-color:#979797"/>
							<stop  offset="0.9301" style="stop-color:#949494"/>
						</linearGradient>
						<path class="st65" d="M134,72.5c-1.2-2.8-31.4-0.4-65.1,13.9c-33.8,14.1-57.3,34.9-55.5,38.3c1.8,3.7,27.7-11.9,61-26.6
							C107.6,83.2,135.4,75.5,134,72.5z"/>
					</g>
					<ellipse class="st51" cx="127.3" cy="76.5" rx="4.2" ry="8.7"/>
					<ellipse class="st51" cx="25.4" cy="116.5" rx="4.2" ry="8.7"/>
					<rect x="56.7" y="96.1" transform="matrix(0.9021 -0.4316 0.4316 0.9021 -36.3284 41.6931)" width="34" height="9.6"/>
				</g>
				
					<linearGradient id="SVGID_45_" gradientUnits="userSpaceOnUse" x1="272.6" y1="394.0912" x2="538.0901" y2="394.0912" gradientTransform="matrix(1 0 0 -1 0 476)">
					<stop  offset="3.225806e-02" style="stop-color:#B5B5B5"/>
					<stop  offset="4.430964e-02" style="stop-color:#BEBEBE"/>
					<stop  offset="7.908797e-02" style="stop-color:#D3D3D3"/>
					<stop  offset="0.1181" style="stop-color:#E2E2E2"/>
					<stop  offset="0.1644" style="stop-color:#EAEAEA"/>
					<stop  offset="0.2366" style="stop-color:#EDEDED"/>
					<stop  offset="0.4247" style="stop-color:#F0F0F0"/>
					<stop  offset="0.6205" style="stop-color:#EEEEEE"/>
					<stop  offset="0.672" style="stop-color:#EAEAEA"/>
					<stop  offset="0.7652" style="stop-color:#C6C6C6"/>
					<stop  offset="0.8727" style="stop-color:#A2A2A2"/>
					<stop  offset="0.9301" style="stop-color:#949494"/>
				</linearGradient>
				<path class="st66" d="M272.6,64.2h16.9c0,0,18.4-14.7,73-7.3l165.7,28.2c0,0,12.2,11,9.5,23.9L272.6,64.2z"/>
				
					<linearGradient id="SVGID_46_" gradientUnits="userSpaceOnUse" x1="335.5585" y1="345.9815" x2="578.5468" y2="313.8746" gradientTransform="matrix(1 0 0 -1 0 476)">
					<stop  offset="3.225806e-02" style="stop-color:#B5B5B5"/>
					<stop  offset="5.857578e-02" style="stop-color:#BBBBBB"/>
					<stop  offset="0.1696" style="stop-color:#D0D0D0"/>
					<stop  offset="0.294" style="stop-color:#DFDFDF"/>
					<stop  offset="0.4418" style="stop-color:#E7E7E7"/>
					<stop  offset="0.672" style="stop-color:#EAEAEA"/>
					<stop  offset="0.7652" style="stop-color:#C6C6C6"/>
					<stop  offset="0.8727" style="stop-color:#A2A2A2"/>
					<stop  offset="0.9301" style="stop-color:#949494"/>
				</linearGradient>
				<path class="st67" d="M352.1,114l227,38.7c0,0,0.6,20.9-14.4,25.8l-230.8-32.2C333.9,146.2,356.5,134.9,352.1,114z"/>
				
					<linearGradient id="SVGID_47_" gradientUnits="userSpaceOnUse" x1="302.1991" y1="293.8423" x2="454.4" y2="293.8423" gradientTransform="matrix(1 0 0 -1 0 476)">
					<stop  offset="3.225806e-02" style="stop-color:#9C9C9C"/>
					<stop  offset="0.2319" style="stop-color:#B0B1B1"/>
					<stop  offset="0.4892" style="stop-color:#C6C8C9"/>
					<stop  offset="0.5074" style="stop-color:#C0C2C3"/>
					<stop  offset="0.5839" style="stop-color:#ADAEAE"/>
					<stop  offset="0.6696" style="stop-color:#9F9F9F"/>
					<stop  offset="0.7714" style="stop-color:#969797"/>
					<stop  offset="0.9301" style="stop-color:#949494"/>
				</linearGradient>
				<path class="st68" d="M302.2,192.8c0,0-1.8-50.2,152.2-28.4c0,0-87.6,1.7-147.8,41C306.6,205.5,303.8,201.7,302.2,192.8z"/>
				
					<linearGradient id="SVGID_48_" gradientUnits="userSpaceOnUse" x1="306.6" y1="291.0226" x2="565.1" y2="291.0226" gradientTransform="matrix(1 0 0 -1 0 476)">
					<stop  offset="3.225806e-02" style="stop-color:#9C9C9C"/>
					<stop  offset="0.2319" style="stop-color:#B0B1B1"/>
					<stop  offset="0.4892" style="stop-color:#C6C8C9"/>
					<stop  offset="0.5074" style="stop-color:#C0C2C3"/>
					<stop  offset="0.5839" style="stop-color:#ADAEAE"/>
					<stop  offset="0.6696" style="stop-color:#9F9F9F"/>
					<stop  offset="0.7714" style="stop-color:#969797"/>
					<stop  offset="0.9301" style="stop-color:#949494"/>
				</linearGradient>
				<path class="st69" d="M306.6,205.5c0,0,41.1-31.9,135.7-40.5c0,0,14.4-4.7,122.8,13.5c0,0-9.8,15.3-23.3,19
					c0,0-82.6-14.7-138.7-16.5C403,181,348.4,179.7,306.6,205.5z"/>
			</g>
			<g>
				<path d="M480.2,204.7c0-1.2-0.1-2.5-1.1-3.6l0,0c-1.1-2.5-3.2-4.6-5.7-6.5c-5.9-4.4-13.6-6.9-21.8-8.7c-2.5-0.7-5.1-0.9-7.7-1.3
					c-0.9-0.1-1.7-0.1-2.4,0.4c-0.2-0.1-0.5-0.2-0.7-0.3l0,0c-4.8-1-9.8-1-14.8-0.9c-5.6,0.1-11.2,0.8-16.7,1.5
					c-3.7,0.6-7.2,1.4-10.6,2.4c-4.8,1.4-9.2,3.2-12.9,5.8c-2.5,1.5-4.9,3.1-6.5,5.1c-1.3,1-2,2.2-2.4,3.5c-0.9,1.3-1.3,2.6-1.2,4
					c0.4,3.5,1,7,1.6,10.5c0.1-0.1,0.2-0.2,0.3-0.4c0,0.1-0.1,0.3-0.3,0.4c0.4,4.7,2.8,8.8,8.8,11.7c4.8,2.3,9.5,4.7,15.4,5.7l0,0
					l0,0c1.7,0.8,3.6,1.2,5.7,1.3l0,0c1.2,0.4,2.3,0.7,3.5,1.1c7.9,2.6,16,3.6,24.8,2.5c5.4-0.6,10.2-2.2,14.9-3.9l0,0
					c2.2-0.2,4.2-0.9,6.1-1.6l0,0c1.8-0.6,3.5-1.3,5.4-1.8c4.1-1,7.4-2.9,10.6-4.8c5.3-3,7.5-7.1,7.4-11.7l0,0c0-1-0.1-2,0.1-2.9
					C480.4,209.8,480.2,207.2,480.2,204.7z"/>
				<g>
					<path class="st70" d="M401.1,246.9c-5.9-1.2-10.6-4.1-15.4-6.9c-6-3.6-8.3-8.5-8.8-14.2c0.7-0.7,0.1-1.5,0.2-2.2
						c0.3-1.6,0.9-3.1,1.9-4.5c0.5-1.4,1.5-2.6,3.2-3.2c1.9-0.4,3.7,0.1,5.5,0.5c2.5,0.7,5.2,0.7,7.8,0.8c1.2,0.1,2.2-0.4,3.2-0.8
						c2.5-1.3,5.4-1.8,8-2.9c6.1-1.9,12.5-2.9,19.1-3c5.5-0.1,11,0,16.4,1c1.1,0.2,2.2,0.4,3.3,0.8c1.4,1.2,3.4,1.5,5,2.3
						c0.6,0.3,1.5,0.6,1,1.3c-0.4,0.7-1.2,0.4-1.9,0.3c-1.5-0.3-3.1-0.6-4.6-0.9c-4.3-0.8-8.7-1.1-13.1-1.5
						c-3.1-0.3-6.3,0.1-9.4,0.4c-4,0.4-8,0.9-11.7,2.3c-3.3,1.5-6.9,2.3-10.1,4c-4.6,2.5-8.5,5.4-9.9,9.1c0.5-1.8,3.3-5,6.9-7.3
						c3.2-2,6.6-3.8,10.6-4.6c0.4-0.1,0.8-0.4,1.2-0.5c1.3-0.2,2.5-0.7,3.9-0.5c1.3,0.7,0.6,1.3-0.3,1.7c-1.3,0.5-2.6,0.8-3.9,1.2
						c-5.6,1.7-10.8,4-14.2,8.1c-4.6,5.5-3.4,10.3,2,15.1c1.4,1.2,3.1,2,4.5,3.2C402,246.2,402.9,246.9,401.1,246.9z"/>
					<path class="st71" d="M409.9,215.9c2.1-1.2,4.7-1.4,7-1.8c9-1.6,18.1-1.4,27.1,0.2c2.3,0.4,4.5,0.7,7,1.1
						c-1.6-1.7-4.5-1.2-6-2.7c0.6-0.9,1.5-0.7,2.4-0.4c3.7,0.9,7.3,1.9,10.5,3.7c2.1,1.2,4.5,1.4,6.9,1.1c2.6-0.3,5.3-0.6,7.9-1.1
						c1.3-0.2,2.1-0.1,3.1,0.8c2,1.8,2.7,3.9,3,6.2c0.1,0.4,0,0.9,0.4,1.2c0.1,5.6-2.1,10.5-7.4,14.2c-3.2,2.2-6.5,4.6-10.6,5.8
						c-1.9,0.6-3.6,1.4-5.4,2.1c-1.6-0.7-0.3-1.2,0.3-1.6c1.6-1.2,3.1-2.4,4.5-3.7c6.7-6.3,3.9-12.9-2.9-17.4
						c-4.8-3.2-10.5-4.9-16.5-6.1c-1-0.2-2.6-0.1-2.5-1.6c1.3-1.1,2.9-0.3,4.1-0.1c5.4,1.1,10.7,2.6,15.2,5.4
						c4.2,2.6,7.5,5.8,8.1,9.8c-0.2-3.9-5.8-9-11.1-11.3c-8.9-3.9-18.5-5.3-28.5-5c-2.9,0.1-5.8,0.2-8.6,0.6
						c-1.2,0.1-2.4,0.6-3.6,0.7c-0.8,0-1.4,0.4-2.2,0.5C411.5,216.5,410.6,216.5,409.9,215.9z"/>
					<path class="st72" d="M439,215.9c3.4,1,7,1.4,10.3,2.6c4.8,1.7,9.3,3.7,12.5,7.1c5.4,5.7,4.9,11.4-1.3,16.7
						c-1.2,1-2.3,2-3.7,2.8c-0.5,0.3-1.1,0.5-0.9,1.1c-1.9,0.9-3.9,1.7-6.1,1.9c-0.5-0.7,0-1.3,0.7-1.7c2.6-1.6,4.8-3.4,7.1-5.2
						c2.6-2.1,4.4-4.3,3.7-7.4c-0.2-0.7,0-1.4-0.1-2.1c-0.9-2.1-1.9-4.1-3.8-5.7c-2.6-2.5-6.2-3.6-9.7-4.7
						c-11.5-3.6-23.2-3.6-35-0.8c-0.3,0.1-0.5,0.2-0.7,0.3c-3.7,1-7.5,2-10.5,4.2c-0.9,0.6-1.7,1.2-2.4,2c-1.5,1.4-2.7,2.9-3.4,4.7
						c0,0.2,0,0.4-0.1,0.6c-1.7,3.4-0.2,6.1,2.5,8.6c2,1.9,4.1,3.7,6.7,5.1c1,0.5,2.7,0.8,2,2.4c-2.1-0.1-4-0.6-5.7-1.6
						c0.8-0.7-0.2-0.9-0.6-1.2c-1.1-0.7-2.3-1.3-3.3-2.1c-7.7-5.3-7.9-12.5-1.5-18.2c4.4-4,10.3-6.1,16.4-7.8
						c0.5-0.1,1.2-0.1,1.5-0.7c0.1-1.3,1.6-0.8,2.4-1.3c2.6-0.5,5.3-0.9,8-1c4.3-0.2,8.6-0.2,12.8,0.2
						C437.6,214.9,438.7,215,439,215.9z"/>
					<path class="st73" d="M408.8,187.6c5.5-0.9,11-1.7,16.7-1.9c5-0.1,9.9-0.1,14.8,1.1c0.9,1.2,0.5,2.6,0.6,3.9
						c0,0.6,0.1,1.2-0.5,1.6c-1.8,0.4-3.6,0.2-5.4,0.2c-4.5-0.1-9-0.6-13.6-0.3c1.3-0.1,2.7-0.2,4-0.2c0.6,0,1.3-0.1,1.5,0.6
						c0.2,0.6-0.3,1-0.9,1.3c-0.8,0.3-1.4,0.8-1.8,1.5c-1.1,1.7-1.2,1.7,1.2,2.2c1.1,0.2,2,0.6,1,1.7c-0.8,0.2-1.7,0.1-2.6,0.2
						c-3,0.5-5.9,0.7-8.9,0.9c-2.3-0.3-4.5,0.3-6.7,0.7c-1.4,0.3-2.7,0.2-3.7-0.7s-0.2-1.9,0.2-2.7c0.9-1.8,2.8-3.1,4.3-4.7
						c0.8-0.9,1.8-1.8,2.5-2.8c0.9-1.4,0.9-1.4-1-1.6C409.6,188.6,408.7,188.6,408.8,187.6z"/>
					<path class="st74" d="M451.1,188.3c8.3,2.2,16,5.2,21.8,10.5c2.5,2.3,4.6,4.9,5.7,7.9c0.2,0.8-0.6,0.9-1.3,1.1
						c-3.3,0.9-3.9,2.4-1.9,4.6c0.7,0.7,1.5,1.4,1.9,2.3c0.3,0.6,0.4,1.2-0.3,1.6c-0.9,0.5-1.4-0.1-2-0.5c-0.2-0.1-0.4-0.3-0.4-0.5
						c-0.3-1.3-1.5-1.8-3-2c-4.7-3.6-10.2-6.2-16.3-8c-0.9-0.3-1.8-0.5-1.4-1.6c1.4-0.6,2.8,0.1,4.2,0.2c0.4,0,0.9,0.3,1.3,0.3
						c0.6,0.1,1.1,0.4,1.5,0.6c-1-0.6-2.5-0.6-3.7-1.1c-0.6-0.3-1.5-0.3-1.4-1.2c0.8-0.9,1.7-0.6,2.7-0.3c0.5,0.1,1.1,0.4,1.5,0
						c0.4-0.3-0.1-0.7-0.2-1.1c-0.6-2.5-3-4.2-4.8-6.1c-1.4-1.4-2.8-2.9-4.7-4c-0.1-0.1-0.2-0.1-0.3-0.2c-0.6-0.5-1.3-1-0.9-1.8
						C449.4,188.1,450.4,188.5,451.1,188.3z"/>
					<path class="st75" d="M408.8,187.6c1.8,0.6,3.6,0.2,6-0.2c-1.4,1.8-2.4,3.2-3.6,4.5c-1.5,1.6-3.2,3.1-4.6,4.7
						c-0.9,1-2.3,2.2-1.4,3.5c1,1.4,2.8,0.4,4.2,0.3c1.6-0.2,3.2-0.9,4.9-0.4c-0.7,0.9-2.1,1-3.2,1.2c-3.3,0.6-6.5,1.6-9.5,2.9
						c-1.5,0.3-2.8,0.8-4.4,0.7c-1.1-0.1-2.1,0.6-3.1,1.1c-0.6,0.3-1.2,0.7-1.9,0.9c-2.3,0.7-3.6,0-3.5-2c0-0.9,0-1.8,0-2.8
						c0.1-1.5-0.3-2.8-2.5-3.2c-0.6-0.1-1.1-0.4-0.9-1c3.6-3.1,8.1-5.4,12.9-7.1C401.6,189.4,405.2,188.3,408.8,187.6z"/>
					<path class="st76" d="M462.1,231.5c1.2,3.5,0,6.6-2.9,9.3c-2.5,2.3-5.1,4.6-8.2,6.4c-0.4,0.2-0.7,0.6-1.1,0.9
						c-4.8,2-9.5,3.9-14.9,4.7c-8.7,1.3-16.9,0.1-24.8-3.1c-1.1-0.5-2.3-0.9-3.5-1.3c-3-2-6.1-3.8-8.7-6.2c-3.2-2.9-4.9-6.1-3.8-10
						c0.1-0.3,0.3-0.5,0.4-0.7c1.5,0.6,0.5,1.7,0.8,2.5c0.2,0.6-0.4,1.5,0.9,1.6c1.1,0.2,1.5,1,2.1,1.6c1.5,1.2,2.9,2.7,4.9,3.4
						c1.1,1.3,2.5,2.4,4,3.4c1.2,1.5,3.1,2.2,5,3c3.4,1.4,7.1,2,10.7,3c1.5,0.4,3.2,0.6,4.6-0.4c0.5-0.3,1.2-0.4,1.7-0.2
						c2.3,0.8,4.5,0.3,6.7-0.2c3.2-0.6,6.2-1.6,9.1-2.7c3.7-1,6.2-3.4,9.4-5c0.3-0.2,0.6-0.5,0.9-0.6c2.2-0.8,3.6-2.2,3.7-4.2
						c0.6-0.5,0.5-1.3,1.1-1.7c0.5-0.1,0.7,0.1,0.9,0.5C461.7,234.2,460.3,232.7,462.1,231.5z"/>
					<path class="st77" d="M472.1,212.7c2.4,0.3,2.7,2.4,4.5,3.6c0-1.7-1.1-2.6-2.1-3.4c-1.4-1.1-1.8-2.4-1.1-3.7
						c0.7-1.2,2.1-2.2,4.1-2.2c0.4,0,0.8-0.2,1.1-0.3c1,1.3,1.1,2.9,1.1,4.4c0,3.1,0.2,6.2-0.3,9.4c-0.2,1.2-0.1,2.4-0.1,3.6
						c-0.7-0.3-0.7-0.8-0.9-1.4c-0.6-1.8-1.5-3.5-2.6-5.1c-0.8-1.1-1.7-1.5-3.3-1.1c-3.3,0.7-6.6,1.4-10.1,1.4c-1.5,0-2.9-0.3-4.2-1
						c-4.1-2.1-8.4-3.5-13.2-4.3c-7.4-1.8-14.9-1.9-22.5-1.5c-5.5,0.3-10.7,1.5-15.9,2.8c-0.3,0.2-0.6,0.2-0.9,0.2
						c-0.8,0-1.7,1-2.3,0c-0.4-0.7,0.6-1.2,1.1-1.7c0.4-0.4,1-0.7,1.7-0.8c8-2.2,16.2-3.6,24.6-3.3c8.9,0.3,17.6,1.4,25.6,4.9
						c0.1,0.1,0.3,0.1,0.4,0.1c3.3,3.2,7.5,2,11.5,1.7C470.4,214.9,471.8,214.4,472.1,212.7z"/>
					<path class="st73" d="M451.1,188.3c-1.7,0.6-1.6,1.3-0.3,2.1c3.5,2.1,5.9,5,8.5,7.7c1.2,1.3,1.8,3,2.6,4.5c0.5,1-0.1,1-1.1,0.8
						c-1.6-0.3-3.3-0.6-4.9-0.9c-2.4,0.3-4.6-0.3-6.8-0.7c-1-0.4-2.1-0.3-3.2-0.3c-2.8-0.6-5.6-1.2-8.6-1.4
						c-1.6-0.1-3.1-0.6-4.6-0.9c-0.8-1.2,0.3-1.3,1.3-1.4c2.6-0.2,5.1,0.2,7.6,0.4c1.3,0.1,2.6,0.4,4,0.5c0.5,0,1,0.1,1.2-0.3
						c0.2-0.4-0.1-0.8-0.5-1c-2-1.1-3.8-2.6-6.4-2.9c-1.2-0.1-2.5-0.5-1.9-1.9c0.5-0.5,1.3-0.2,2-0.4c0.5-0.2,0.7-0.5,0.8-0.9
						c0.2-1.4-0.1-2.8,0.2-4.2c0.6-0.6,1.5-0.7,2.4-0.5C445.9,187.2,448.6,187.5,451.1,188.3z"/>
					<path class="st78" d="M385.3,197.7c4.5,1.2,4.5,1.2,4.5,5.1c0,0.6,0,1.2,0,1.8c-0.1,1.5,0.4,1.8,2.2,1.3
						c0.3-0.1,0.5-0.2,0.7-0.3c2.5-1.5,5.4-1.9,8.4-2.3c1.5-0.7,3.1-1,4.8-1.3c1.2,0.8,2.7-0.4,3.8,0.4c0.4,1-0.6,1.3-1.4,1.4
						c-5.5,1-10.5,3-15.5,5c-2.5,1-4.5,2.8-6.7,4.2c-0.5,0.3-1,0.8-1.6,1c-1,0.2-1.9,0.4-2.3,1.3c-0.3,0.6-0.9,1-1.8,0.6
						c-0.8-0.3-0.8-1-0.4-1.6c0.8-1.1,1.4-2.2,3-2.7c0.6-0.2,1.1-0.6,1.6-0.9c-0.2,0.2-0.5,0.4-0.8,0.5c-1.6,0.8-2.4,0.5-2.7-1
						c-0.1-0.5,0-1.1-0.1-1.6c-0.2-1.5-0.3-2.9-2-3.9c-0.3-0.2-0.5-0.5-0.3-0.9C380.4,201.4,382.7,199.5,385.3,197.7z"/>
					<path class="st79" d="M378.8,203.9c3.1,0.5,2.8,2.7,3.2,4.4c0.2,0.9-0.6,2.3,0.6,2.7c1.5,0.5,2.2-1,3.2-1.5
						c0.1-0.1,0.2-0.1,0.5-0.1c-1.8,2-4.7,3.5-5.8,6.3c1.7-0.7,1.6-2.5,3.6-2.4c0.4,0.5,0.4,0.9,0,1.4c-0.1,1-1,1.3-2,1.6
						c-0.8,1-1.6,1.9-2.4,2.9c-0.3,0.3-0.5,0.8-1.2,0.7s-0.8-0.6-0.9-1.1c-0.2-1.6,0-3.1,0-4.7c-0.1-2-0.5-4-1.1-5.9
						C376.8,206.5,377.5,205.1,378.8,203.9z"/>
					<path class="st80" d="M376.4,208.1c1.8,1,1.9,2.5,2,4c0.1,2.1,0.4,4.2,0,6.3c-0.1,0.7,0,1.3,1.2,0.7c-1.2,2.1-1.5,4.5-2.8,6.5
						c-0.5-4.2-1.1-8.5-1.6-12.7C375.1,211.3,375.6,209.6,376.4,208.1z"/>
					<path class="st81" d="M441,187.2c0.8,1.5,0.6,3.1,0.1,4.6c-1-0.5,0-1.3-0.3-1.8c-0.1,0.3,0.3,0.9-0.6,0.9c0-1.4,0-2.7,0-4.1
						C440.5,187,440.7,187.1,441,187.2z"/>
					<path class="st82" d="M416,216.2c-0.8,0.2-1.6,0.4-2.4,0.7c-1.4,0.1-2.7,0.3-4,0.7c-0.6,0.3-1.1,0.1-1.2-0.4
						c-0.2-0.4,0.4-0.5,0.7-0.6c1.1-0.3,2.2-0.7,3.3-1c0.7-0.1,1.3-0.2,2-0.3c1.2-0.4,2.4-0.4,3.6-0.6c11-1.5,21.8-1.1,32.3,2.2
						c6.8,2.2,12.6,5.3,15.7,11c1.1,2,0.9,4.1,0.8,6.1c-0.6,0-0.6-0.2-0.6-0.4c0.2-4.9-3-8.4-7.4-11.2c-5.8-3.7-12.5-5.7-19.8-6.4
						c-5.1-0.9-10.2-0.6-15.3-0.6C421.1,215.7,418.5,215.6,416,216.2z"/>
					<path class="st83" d="M412.4,215.6c-1,0.4-2,0.8-3,1.2s-0.5,0.5,0.1,0.7c-2.6,1.2-5.5,1.9-8.1,3.2c-5.4,2.8-9.8,6-11,11.4
						c-0.1,0.3-0.2,0.5-0.9,0.6c0-1.7,0.5-3.2,1.2-4.6c2-3.9,5.7-6.5,9.9-8.7c2.9-1.5,6.2-2.4,9.3-3.6
						C410.8,215.8,411.6,215.7,412.4,215.6z"/>
					<path class="st79" d="M406.7,212.3c-0.9,0.5-1.9,1-2.8,1.5c0,0.1,0.1,0.2,0.1,0.3c0.9,0,1.8-0.1,2.7-0.1
						c-2.9,1.2-6,2.1-8.8,3.5c-1.1,0.6-2.5,0.5-3.7,0.3c-2.2-0.3-4.3-0.6-6.5-0.9c-1.1-0.8-0.1-1.3,0.6-1.3c1.8,0.1,3.4-0.6,5.2-0.3
						c1.9,0.9,3.5,0.2,5-0.8c1.8-1.1,3.9-1.9,6.1-2.5C405.4,211.8,406.2,211.6,406.7,212.3z"/>
					<path class="st80" d="M393.8,216.2c-1.6,0-3.2-0.1-4.8-0.1c-0.7,0-1.4-0.1-1.3,0.8c-1.9-0.2-3.7-0.8-5.6-0.6
						c0.8-0.5,0.7-1.3,1.2-2c3,0.2,6,0.5,8.9,0.9C393,215.3,393.9,215.3,393.8,216.2z"/>
					<path class="st83" d="M418,214.6c-1.2,0.4-2.4,0.6-3.6,0.6C415.5,214.6,416.7,214.6,418,214.6z"/>
					<path class="st84" d="M411.2,220.2c13.8-3.6,27.4-3.4,40.5,1.8c2.4,1,4.6,2.2,6.4,3.9c0,0.7-0.5,0.5-0.9,0.4
						c-0.4-0.2-0.7-0.4-1-0.6c0.4,0.4,1,0.6,1.5,1c0.9,0.4,1.2,0.9,0.7,1.6c-0.7,0.5-1.5,0.4-1.9-0.1c-1.8-2.1-4.4-3.2-7.2-4.3
						c-0.3-0.1-0.6,0-0.9-0.1c-3.1-1.2-6.4-1.9-9.5-2.9c-0.6-0.2-1.2-0.1-1.8,0c-7.3-1-14.6-0.7-21.8,0.9c-0.8,0.2-1.5,0.4-2.4,0.3
						C412,221.6,411,221.2,411.2,220.2z"/>
					<path class="st85" d="M396.2,236.1c-0.2,0.4-0.4,0.7-0.6,1c-1.5-1.7-1.1-3.7-1-5.6c0.7-1.9,1.9-3.5,3.6-4.9
						c1.8-1.2,3.6-2.5,5.6-3.4c0.7-0.3,1.5-1.2,2.5-0.4c0.9,0.7,0.2,1.4-0.3,2c-0.3,0.2-0.7,0.4-1.1,0.4c-1.2-0.4-1.9,0.1-2.7,0.8
						c-1.1,0.9-2,1.8-2.6,3c-1.4,1.6-2,3.4-2.3,5.3C397.1,234.9,397.3,235.7,396.2,236.1z"/>
					<path class="st86" d="M458,228.3c0-0.6-0.4-1.1-0.8-1.6c-0.2-0.2-0.3-0.4,0-0.7c0.3,0,0.6,0,0.9-0.1c2.1,1.5,3.3,3.5,4,5.6
						c0.1,1.7,0.4,3.5-1,5.2c-0.2-0.6-0.4-1.1-0.6-1.6c-0.5-0.1-0.7-0.4-0.9-0.7c-0.1-1.6-0.5-3.2-1.5-4.6
						C457.7,229.3,457.5,228.8,458,228.3z"/>
					<path class="st87" d="M405.5,224.4c0.3-0.4,0.7-0.8,0.2-1.3c-0.5-0.4-1,0-1.4,0.2c-2,1.1-4,2.2-6,3.3c3.5-3.2,8-5.2,12.9-6.5
						c0.7,0.3,1.2,0.7,1.6,1.3c-0.1,1.7-2,1.4-3.2,2c-0.8,0.3-1.4,0.7-2.2,1C406.7,224.7,406.1,225,405.5,224.4z"/>
					<path class="st83" d="M416,216.2c2.4-0.9,5.1-0.9,7.7-1C421.2,215.9,418.6,215.9,416,216.2z"/>
					<path class="st81" d="M438.2,192.8c0.3,1,1.4,1,2.4,1.2c3.5,0.6,6,2.5,8.2,4.6c0.7,0.7,0.4,1.1-0.5,1.3s-1.7,0-2.6-0.1
						c-3.5-0.6-7.1-1-10.7-1.1c-0.8,0-1.6,0-2.4,0.3c-2,0.9-4,0.9-6.1,0c-0.7-0.7-1.7-0.6-2.6-0.4c-0.9,0.2-1.8,0-2.3-0.6
						c-0.6-0.8,0.4-1.2,0.8-1.8c0.9-1.2,1.5-2.6,3.5-3c0.4-0.1,0.1-0.4-0.3-0.6c0-0.5,0.4-0.5,0.8-0.5c3.7-0.1,7.3,0.2,11,0.4
						C437.8,192.3,438,192.5,438.2,192.8z"/>
					<path class="st12" d="M405.9,202.2c-1.6,0.4-3.2,0.7-4.9,1.1c1-0.9,2.5-1.1,3.8-1.4c3.1-0.8,6.3-1.6,9.5-2
						c3.1-0.3,6.2-0.6,9.4-0.9c0.4,0.4,1.5-0.3,1.7,0.6c-0.3,0.7-1.1,0.8-1.7,0.7c-5.3,0-10.5,1.1-15.7,1.8
						C407.3,202.3,406.6,202.3,405.9,202.2z"/>
					<path class="st88" d="M438.2,192.8c-4.2-0.4-8.3-1-12.5-0.3c-2.5,0-4.9,0-7.4,0.1c7.2-1.2,14.4-0.7,21.6-0.4
						c0.2,0.1,0.3,0.1,0.3,0.3C439.6,192.8,438.9,192.8,438.2,192.8z"/>
					<path class="st89" d="M425.3,199.3c-0.5-0.1-1.1-0.2-1.6-0.3c0.9,0,1.9-0.1,2.8-0.1c2,0,4,0,6.1,0c4.6,0.4,9.3,0.5,13.7,1.7
						c-0.1,0.2-0.3,0.3-0.5,0.4c-2.1,0.5-4.2-0.3-6.2-0.5c-3.8-0.3-7.6-0.5-11.5-0.5C427,200.1,426,200.2,425.3,199.3z"/>
					<path class="st90" d="M417,191.5c-0.9-1.2-0.6-2.5-0.6-3.8C417,188.9,417.1,190.2,417,191.5z"/>
					<path class="st91" d="M440.3,192.5c-0.1-0.1-0.2-0.2-0.3-0.3c0.4-0.4,0.4-0.8,0.3-1.3c0.2-0.9,0.3-1.8,0.5-2.6
						c0.1,0,0.2,0,0.3,0c0,1.2,0,2.4,0,3.6C440.9,192.1,440.7,192.4,440.3,192.5z"/>
					<path class="st92" d="M393.8,216.2c-2.6-0.7-5.4-0.5-8.1-1c-0.9-0.2-1.9-0.2-2.4-1c0.3-0.3,0.5-0.6,0.8-1
						c6.1-4.8,13.6-7.7,21.6-9.8c1.3-0.3,2.7-0.3,3.8-1c0.4-0.7,1.1-0.8,2-0.9c13-2.3,25.9-2,38.7,0.7c1.3,0.3,2.9,0.4,3.7,1.5
						c2.5,0.9,5,1.8,7.5,2.8c3.9,1.6,7.4,3.7,10.7,6c1.9,2.6,1.9,2.6-1.9,2.9c-2.4,0.2-4.8,0.4-7.2,0.6c-1.1,0.1-2.2,0-3.1-0.5
						c-9.8-5.1-20.8-6.6-32.1-6.5c-7.2,0.1-14.3,0.9-21,3.2c-3,0.4-5.6,1.8-8.2,2.9C397,215.9,395.5,216.3,393.8,216.2z"/>
					<path class="st93" d="M453.9,203.9c-5.3-1.2-10.6-2.2-16.1-2.7c-9.2-0.7-18.2-0.4-27.2,1.2c-0.3,0.1-0.7,0.1-1,0.1
						c-1.2-0.2-2.6,0.8-3.6-0.4c5.3-1.5,10.7-2.2,16.3-2.6c1.1-0.1,2.1,0.1,3.2-0.3c6.9-0.2,13.7,0.5,20.5,1.3
						c1.1,0.2,2.2,0.3,3.3,0.5c3.4,0.8,6.8,1.6,10,2.9c0.3,0.1,0.7,0.1,0.5,0.5C457.7,204.3,455.8,204.1,453.9,203.9z"/>
					<path class="st9" d="M459.6,204.5c-3.3-1.5-7-2.2-10.5-3.2c0.1-0.2,0.2-0.2,0.4-0.3c2.2,0.5,4.3,1,6.5,1.6
						c2.5,1.1,5.3,1.8,8,3.4C462,205.8,460.9,205,459.6,204.5z"/>
					<path class="st94" d="M396.2,236.1c-0.3-2.8,0.6-5.3,2.8-7.5c0.9-0.9,1.3-0.2,1.4,0.4c0.1,0.9,0.8,1.2,1.5,1.7
						c2.4,1.9,5.5,3.1,7.4,5.4c0.4,0.5,1.1,0.6,1.4,1.1c0.1,1.5,1.7,2.6,1.8,4.1c-0.3,0.9-1,1.6-2.3,1.8c-0.8,0.1-1.4,0.6-2.1,0.9
						c-2.3-0.3-3.7-1.7-5.5-2.7C400,240,397.9,238.2,396.2,236.1z"/>
					<path class="st95" d="M460.4,234.1c0,0.4,0.1,0.7,0.1,1.1c0.1,0.7-0.2,1.3-0.5,1.9c-1.1,2.3-3.6,3.5-5.9,4.9
						c-3.1,1.8-6.1,3.5-9.7,4.6c-4.1,0.9-8.3,1.8-12.6,2c-5.7,0.3-11.4,0.1-16.9-1.3c-0.2-0.1-0.3-0.2-0.5-0.3
						c-0.2-0.3-0.4-0.7-0.3-1.1c0.4-0.7,1.1-0.7,1.9-0.7c0.9,0.1,1.7-0.2,2.6-0.2c3.6,0,7.1-1.1,10.7-1.1c0.2,0,0.4,0,0.6,0
						c2.7,1.3,5.8,0.6,8.6,1c2.8,0.4,5.2-0.7,7.8-1.4c2.2-1.3,4.8-2.2,6.9-3.6c2-1.4,3.9-2.9,5.4-4.8
						C458.9,234.6,459.2,233.8,460.4,234.1z"/>
					<path class="st96" d="M445.5,247.2c-3.6,1.6-7.4,2.9-11.5,3.4c-1.6,0.2-3.2,0.5-4.7-0.1c-0.3-0.1-0.7-0.2-0.9,0
						c-2.4,1.5-4.8,0.6-7.2,0c-4-0.9-7.8-2-11.3-3.9c-1.2-0.6-2.7-1.1-3.1-2.4c1.2-0.5,2,0.2,2.9,0.5c6.9,3.3,14.3,4.1,22.2,3.5
						c4.5-0.3,8.8-1.1,13-2.4c0.8-0.3,1.7-0.5,2.5-0.8c0.4-0.2,0.9-0.5,1.2-0.1c0.4,0.5-0.3,0.7-0.7,1
						C447.2,246.4,446.3,246.8,445.5,247.2z"/>
					<path class="st97" d="M445.5,247.2c0.9-0.6,1.8-1.2,3.1-2.1c-1.5,0.2-2.4,0.9-3.5,0.9c-0.2,0.2-0.4,0.1-0.5-0.1
						c5.9-2.1,11.2-4.8,15.5-8.7c-0.2,1.2-0.6,2.2-1.8,3c-3.5,2.1-7,4.3-10.5,6.4C447,246.8,446.2,246.9,445.5,247.2z"/>
					<path class="st98" d="M409.2,245.2c-0.7-0.5-1.5-0.8-2.4-1c-1.5-0.8-3.1-1.6-4.1-2.9c1.9,0.5,3.3,1.9,5.3,2.3
						c2.2-0.3,4,0.7,5.9,1.3c0.5,0.2,0.6,0.5,0.6,0.9c0.1,0.2,0.2,0.5,0.4,0.7C412.6,246.8,411,245.8,409.2,245.2z"/>
					<path class="st99" d="M449.5,201c-0.1,0.1-0.3,0.2-0.4,0.3c-1.1-0.1-2.2-0.3-3.2-0.7c0.1,0,0.3,0,0.4,0
						C447.4,200.5,448.4,200.8,449.5,201z"/>
					<path class="st12" d="M394.8,205.6c0.7-0.7,1.7-1,2.9-1.2C396.9,205.1,395.9,205.5,394.8,205.6z"/>
					<path class="st100" d="M409.2,222.8c1.2-0.4,2.4-0.9,3.6-1.3c6.1-1.5,12.4-2.2,18.9-2c1.9,0.1,3.9,0.2,5.8,0.6
						c1.8,0.7,2.1,2.1,3,3.3c1,1.5,1.6,3,1.6,4.7c0,1.2-0.4,2.1-1.9,2.4c-0.4,0.1-0.8,0.1-1.2-0.1c-0.8-0.8-2-0.7-3.1-0.7
						c-6-0.9-11.9-1-17.5,1.2c-0.9,0.4-1.9,0.5-2.9,0.6c-1.5-0.5-3-1.2-4.3-2C407.9,227.7,407.5,226.1,409.2,222.8z"/>
					<path class="st101" d="M460.4,234.1c-2.6,4-6.5,6.8-11.3,9c-0.8,0.4-1.6,0.6-2.4,0.8c-0.7-0.2-1.5,0-2.2,0.1
						c-1.1,0-2.1-0.1-2.6-1.1c-0.3-0.6,0.3-1,0.8-1.4c2.2-1.8,3.6-3.8,2.9-6.4c-0.1-0.2,0.1-0.4,0.2-0.6c2.2-1.9,4.8-3.6,6.8-5.6
						c1.3-1.3,1.4-1.8-0.3-2.9c-0.7-0.5-1.4-0.8-2-1.3c-0.5-0.4-1.2-0.8-0.7-1.5c2.5,0.7,4.4,2.1,6.3,3.6c0.7,0.6,1.5,1.1,2.2,1.6
						C459.5,230.1,460.7,231.9,460.4,234.1z"/>
					<path class="st102" d="M439.8,230.2c1.2-1,1.7-3.9,0.6-5.1c-1.5-1.5-1.7-3.5-3-5c4,0.3,7.7,1.6,11.3,3c1.5,1.4,1.7,2.5,0.3,4.1
						c-1.1,1.3-2.3,2.5-3.2,3.9c-0.5,0.7-1.3,1.1-2.2,1.3C441.7,232.3,440.2,231.5,439.8,230.2z"/>
					<path class="st103" d="M443.4,231.9c2.3-1.8,3.6-4,5.3-6.1c0.6-0.8,0.3-1.8,0-2.7c0.3,0,0.6,0,0.8,0c1.4,0.9,2.7,1.7,4.1,2.6
						c1.9,1.3,1.9,2,0,3.4c-2,1.5-3.3,3.6-5.8,4.7c-0.5,0.2-0.9,0.6-1.5,0.7C444.4,234.4,443.3,233.3,443.4,231.9z"/>
					<path class="st101" d="M457.2,226c0,0.2,0,0.4,0,0.7c-0.9-0.6-1.9-1.3-2.8-1.9C455.7,224.7,456.2,225.6,457.2,226z"/>
					<path class="st87" d="M409.9,237.4c-2.4-1.7-4.9-3.5-7.3-5.2c-0.4-0.2-0.7-0.6-1.1-0.7c-1.7-0.5-3.2-1-1.9-2.8
						c-0.2,0-0.3-0.1-0.5-0.1c0.2-1.3,3.2-4.2,4.6-4.3c0.3,0,0.7,0.3,1,0.4c0.3,3.3,2.9,5.5,5.5,7.7c0.6,0.5,1.2,1.1,1.6,1.8
						C411.4,235.4,411.5,236.7,409.9,237.4z"/>
					<path class="st104" d="M411.1,234.1c-3.1-1.9-5.1-4.4-7.2-7c-0.9-1.1,0.2-1.7,0.8-2.4c0.3-0.1,0.5-0.2,0.8-0.3
						c1.2-0.5,2.5-1.1,3.7-1.6c0.1,0.6,0.4,1.2,0.2,1.8c-0.8,2.4,0.7,3.8,3,4.9c1,0.5,2.1,0.9,2.8,1.8
						C414.8,232.5,412.8,234,411.1,234.1z"/>
					<path class="st73" d="M394.4,209.4c-0.2,0.6-1.2,0.4-1.2,1.1c0.7,0.5,1.6,0.5,2.4,0.3s1.4-0.6,1.9,0.3c0.7,1.1,1.2,2.2,0.3,3.4
						c-0.6,0.8-1.5,0.8-2.5,0.6c-2.2-0.5-3.8-2.4-3.5-4.2C392,209.6,392.9,209.3,394.4,209.4z"/>
					<path class="st22" d="M464.1,214.3c-1.2,1-2.6,1.5-4,0.5c-1.5-1.1-0.6-2.3,0.3-3.4c0.6,0,1.3-0.1,1.9,0.1
						C464.6,212.5,464.7,212.7,464.1,214.3z"/>
					<path class="st105" d="M464.1,214.3c-0.2-1.1-1.2-1.8-2-2.6c1-0.6,2.5-0.7,2.8-2C466.5,211.4,466.3,212.7,464.1,214.3z"/>
					<path class="st106" d="M413.5,208.7c0.8-0.1,1.3-0.1,1.5,0.3c0.2,0.6-0.5,0.6-1,0.8c-0.1,0-0.1,0-0.2,0
						c-1.1,0.1-2.1,0.8-3.2,0.3c-0.1-0.1-0.2-0.5-0.1-0.6C411.4,208.8,412.7,208.8,413.5,208.7z"/>
					<path class="st107" d="M426,205.1c-0.4,0.6-0.9,1.6-1.7,1.4c-1.2-0.3-1.8-1.3-2.2-2.3c0.3-0.4,0.8-0.5,1.4-0.5
						C424.5,204.1,425.1,204.7,426,205.1z"/>
					<path class="st108" d="M464.8,209.7c0.4,1.9-1.2,1.9-2.8,2c-0.6,0-1.2-0.1-1.7-0.4c0.4-0.6,1.1-0.4,1.8-0.4
						c0.8,0,1.8,0.2,1.5-1C463.5,209.4,464.4,209.6,464.8,209.7z"/>
					<path class="st77" d="M423.7,204.2c-0.5,0-1.1,0-1.6,0c-0.2-0.4-0.4-0.8,0.3-0.9c1.5-0.2,3-0.3,4.1,0.9
						C425.6,204.9,424.6,204.7,423.7,204.2z"/>
					<path class="st109" d="M430.2,204c1.2,0.3,1.8,0.7,2.6,0.1c-0.5,0.8-0.6,1.5,0.1,2.3c-0.9-0.1-1.5-0.7-2.2,0.1
						C430.9,205.6,431.2,205,430.2,204z"/>
					<path class="st110" d="M435.7,204.3c-0.6,0.8-1.1,1.5-1.9,2.1C432.8,204.7,432.9,204.5,435.7,204.3z"/>
					<path class="st111" d="M428.1,204.1c0.2,0.1,0.9,0,0.5,0.3c-0.9,0.6,1.6,1.8-0.6,1.9c-1.1,0-0.1-1.1-0.9-1.5
						C426.8,204.7,427.5,204.2,428.1,204.1z"/>
					<path class="st112" d="M423.7,204.2c0.9,0,1.9,0,2.8,0c-0.2,0.3-0.3,0.6-0.5,0.9C424.9,205.3,424,205.2,423.7,204.2z"/>
					<path class="st111" d="M429.7,204.3c0.5,0.7,0.6,1.4-0.1,2.3C429.2,205.6,429.2,204.9,429.7,204.3z"/>
					<path class="st113" d="M411.1,234.1c1.1-1.2,2.6-2.1,4.1-2.9c4.4-1.4,8.8-3,13.8-2.6c2.4,0.2,4.8,0.4,7.2,0.6
						c0.9,0.4,2.1-0.2,2.8,0.6c0.3,0.1,0.5,0.2,0.8,0.3c1.2,0.5,2.4,1.1,3.6,1.6c0.9,0.9,1.9,1.7,2.8,2.6c1.4,3.6-0.7,6.1-4,8.1
						c-0.2,0.5-0.6,0.6-1.1,0.7c-0.8-0.1-1.2-0.6-0.9-1.2c0.7-1.4,0.2-2.9,1-4.2c0.4-0.6,0.4-1.1-0.3-1.6c-0.6-0.4-0.9-1.1-1.6-1.5
						c-1-0.7-2.2-1-3.3-1.5c-6.3-1.6-12.5-1.5-18.4,1.1c-0.8,0.6-1.4,1.2-2.3,1.7c-0.6,0.3-0.4,0.8-0.5,1.2c-1,1.3,0.3,2.6,0.1,4
						c-0.1,0.6,0.2,1.2-0.6,1.6c-1.6,0.2-2.4-0.2-2.4-1.6c-1.1-1.2-2.2-2.3-2-3.9C409.9,236.2,410.6,235.2,411.1,234.1z"/>
					<path class="st114" d="M441,243c0.4-0.1,0.8-0.2,1.2-0.3c0.8,0.5,1.6,0.7,2.6,0.7c0.7,0,1.5,0,1.9,0.7c-3,1.4-6,2.6-9.6,1.7
						c-0.6-0.1-1.2-0.1-1.8,0c-1.8,0.3-3.3,0.2-4.9-0.6s-3.7-0.7-5.3,0.3c-0.8,0.5-1.6,0.7-2.6,0.5c-1.4-0.2-2.6-0.3-4,0.4
						c-1.2,0.7-2.6-0.6-4-0.3c-2.2-0.8-4.5-1.1-6.5-2.3c0.6-1.6,3.1-1.1,4-2.3c0.8,0.5,1.4,1.1,2.4,1.3c0.8-0.4,1.5,0,2.3,0.1
						c0.7,0.1,1.4,0,1.7-0.6c0.4-0.6-0.3-0.8-0.7-1.2c-0.5-0.4-1.1-0.8-1.7-1.1c-1.4-0.6-2.1-1.6-2-2.8c0-0.5,0.2-1,0.8-1.3
						c0.6-0.2,1.1-0.1,1.6,0.3c1.5,1.2,3.3,2.2,5.2,3c0.3,0.2,0.3,0.4,0.4,0.7c0.8,2.2,2.9,3.4,5.7,3.2c0.8-0.1,1.6-0.1,2.4-0.2
						c2.2-0.3,3.5-1.7,3.3-3.5c0-0.3,0-0.6,0.2-0.9c1.8-1.5,3.6-3.1,6.2-3.8c0.7,0.3,1.2,0.8,1.6,1.3c0.8,1.4-0.4,2-1.5,2.6
						c-1,0.6-2,1-2.8,1.8c-1.1,1-0.8,1.6,0.7,2.1C438.9,242.6,439.9,243,441,243z"/>
					<path class="st74" d="M409.2,245.2c1.9,0.4,3.6,1.2,5.6,1.4c10,2.4,20,1.8,29.8-0.8c0.2,0,0.4,0,0.5,0.1
						c-3.3,1.5-6.9,2.1-10.5,2.5c-8.3,0.9-16.4,0.2-24.2-2.4C409.9,245.8,409.2,245.8,409.2,245.2z"/>
					<path class="st102" d="M439,229.9c-1-0.1-2-0.2-2.8-0.6C437.3,229.1,438.5,228.4,439,229.9z"/>
					<path class="st115" d="M416.8,234.1c1.4-1.1,3.1-1.6,5-2c5-0.9,10-1.2,14.8,0.7c0.8,1.5-0.7,3.7-3.1,4.4
						c-0.7,0.2-1.4,0.3-2.1,0.3c-2.9-0.5-5.7-0.2-8.3,0.8c-2.8,0.2-4.4-1.4-6-2.9C416.6,235.1,416.6,234.6,416.8,234.1z"/>
					<path class="st101" d="M441,243c-1,0.5-5.1,0.3-5.9-0.3c-0.5-0.4-0.3-0.7-0.1-1.2c0.7-1.6,2.1-2.7,3.9-3.5
						c1.1-0.5,2.2-1.1,2.5-2.2c0.6,0.4,1.3,0.9,0.9,1.5c-1.1,1.7,0.1,3.7-1.5,5.3C440.8,242.6,441,242.8,441,243z"/>
					<path class="st94" d="M414,237.1c1.2,1.6,3.2,2.4,4.8,3.6c0.8,0.5,1.6,1.1,2.2,1.8c-2.3,0.7-4.4,2.3-6.6,0.2
						C413.1,240.8,413.5,239,414,237.1z"/>
					<path class="st116" d="M414.7,233.5c3.3-4.5,16.7-5.7,22.9-2.3c-2.4-0.6-4.9-1-7.4-1.2c-2.7-0.3-5.4,0.1-8,0.6
						S417.3,232,414.7,233.5z"/>
					<path class="st117" d="M431.3,237.1c3-0.4,4.4-2.1,5.2-4.2c1.3,0.2,2.4,0.7,3.3,1.6c-1.4,1.8-3.5,2.9-5.7,3.9
						C432.6,238.8,431.7,238.3,431.3,237.1z"/>
					<path class="st118" d="M416.8,234.1c1.8,1.5,3.1,3.5,6.1,3.6c0.3,1.1-0.4,1.5-1.7,1.6c-2.5-0.1-3.8-1.7-5.5-2.8
						c-0.4-0.2-0.6-0.5-1-0.8C415.3,235.1,416,234.6,416.8,234.1z"/>
					<path class="st119" d="M421.2,239.4c0.6-0.5,1.1-1.1,1.7-1.6c2.7-0.8,5.5-1.2,8.4-0.7c0.9,0.4,1.9,0.9,2.8,1.3
						c1,2.4,0.6,3.3-2.3,4.3c-2.7,1-5.5,1-8.2,0C421.8,242.1,421,241,421.2,239.4z"/>
					<path class="st120" d="M424.9,240.6c-0.6-0.3-1.6-0.2-1.7-0.9c-0.1-0.8,0.8-1.2,1.6-1.5c1.5-0.6,3.1-0.6,4.7-0.4
						c1.3,0.1,2.8,0.5,2.8,1.7c0,1.1-0.6,2.3-2.2,2.8c-1.5,0.5-3,0.4-4.5-0.1C424.6,241.9,424.5,241.3,424.9,240.6
						c1.2-1.8,2.7-2.1,5.2-1.2C428,238.5,426.1,238.9,424.9,240.6z"/>
					<path class="st121" d="M424.9,240.6c-0.1-1.5,1.1-1.9,2.7-2.1c1.8-0.2,2.6,0.2,3.3,1.9C428.6,238.5,426.7,239.5,424.9,240.6
						L424.9,240.6z"/>
				</g>
			</g>
			<g>
				
					<linearGradient id="SVGID_49_" gradientUnits="userSpaceOnUse" x1="605.1" y1="378.1" x2="634.1698" y2="378.1" gradientTransform="matrix(1 0 0 -1 0 476)">
					<stop  offset="3.225806e-02" style="stop-color:#D1D1D1"/>
					<stop  offset="0.1173" style="stop-color:#DDDDDD"/>
					<stop  offset="0.2366" style="stop-color:#F4F4F4"/>
					<stop  offset="0.2684" style="stop-color:#E2E2E2"/>
					<stop  offset="0.3079" style="stop-color:#D3D3D3"/>
					<stop  offset="0.3544" style="stop-color:#CACACA"/>
					<stop  offset="0.4247" style="stop-color:#C7C7C7"/>
					<stop  offset="0.5621" style="stop-color:#C9C9C9"/>
					<stop  offset="0.6115" style="stop-color:#D0D0D0"/>
					<stop  offset="0.6467" style="stop-color:#DBDBDB"/>
					<stop  offset="0.672" style="stop-color:#EAEAEA"/>
					<stop  offset="0.7652" style="stop-color:#C6C6C6"/>
					<stop  offset="0.8727" style="stop-color:#A2A2A2"/>
					<stop  offset="0.9301" style="stop-color:#949494"/>
				</linearGradient>
				<rect x="605.1" y="95.2" class="st122" width="29.1" height="5.4"/>
				
					<linearGradient id="SVGID_50_" gradientUnits="userSpaceOnUse" x1="675.0629" y1="378.1" x2="704.1327" y2="378.1" gradientTransform="matrix(1 0 0 -1 0 476)">
					<stop  offset="3.225806e-02" style="stop-color:#D1D1D1"/>
					<stop  offset="0.1173" style="stop-color:#DDDDDD"/>
					<stop  offset="0.2366" style="stop-color:#F4F4F4"/>
					<stop  offset="0.2684" style="stop-color:#E2E2E2"/>
					<stop  offset="0.3079" style="stop-color:#D3D3D3"/>
					<stop  offset="0.3544" style="stop-color:#CACACA"/>
					<stop  offset="0.4247" style="stop-color:#C7C7C7"/>
					<stop  offset="0.5621" style="stop-color:#C9C9C9"/>
					<stop  offset="0.6115" style="stop-color:#D0D0D0"/>
					<stop  offset="0.6467" style="stop-color:#DBDBDB"/>
					<stop  offset="0.672" style="stop-color:#EAEAEA"/>
					<stop  offset="0.7652" style="stop-color:#C6C6C6"/>
					<stop  offset="0.8727" style="stop-color:#A2A2A2"/>
					<stop  offset="0.9301" style="stop-color:#949494"/>
				</linearGradient>
				<rect x="675.1" y="95.2" class="st123" width="29.1" height="5.4"/>
				
					<linearGradient id="SVGID_51_" gradientUnits="userSpaceOnUse" x1="605.1" y1="362.15" x2="632.9484" y2="362.15" gradientTransform="matrix(1 0 0 -1 0 476)">
					<stop  offset="3.225806e-02" style="stop-color:#D1D1D1"/>
					<stop  offset="0.1173" style="stop-color:#DDDDDD"/>
					<stop  offset="0.2366" style="stop-color:#F4F4F4"/>
					<stop  offset="0.2684" style="stop-color:#E2E2E2"/>
					<stop  offset="0.3079" style="stop-color:#D3D3D3"/>
					<stop  offset="0.3544" style="stop-color:#CACACA"/>
					<stop  offset="0.4247" style="stop-color:#C7C7C7"/>
					<stop  offset="0.5621" style="stop-color:#C9C9C9"/>
					<stop  offset="0.6115" style="stop-color:#D0D0D0"/>
					<stop  offset="0.6467" style="stop-color:#DBDBDB"/>
					<stop  offset="0.672" style="stop-color:#EAEAEA"/>
					<stop  offset="0.7652" style="stop-color:#C6C6C6"/>
					<stop  offset="0.8727" style="stop-color:#A2A2A2"/>
					<stop  offset="0.9301" style="stop-color:#949494"/>
				</linearGradient>
				<rect x="605.1" y="111.7" class="st124" width="27.8" height="4.3"/>
				
					<linearGradient id="SVGID_52_" gradientUnits="userSpaceOnUse" x1="676.3" y1="362.15" x2="704.1483" y2="362.15" gradientTransform="matrix(1 0 0 -1 0 476)">
					<stop  offset="3.225806e-02" style="stop-color:#D1D1D1"/>
					<stop  offset="0.1173" style="stop-color:#DDDDDD"/>
					<stop  offset="0.2366" style="stop-color:#F4F4F4"/>
					<stop  offset="0.2684" style="stop-color:#E2E2E2"/>
					<stop  offset="0.3079" style="stop-color:#D3D3D3"/>
					<stop  offset="0.3544" style="stop-color:#CACACA"/>
					<stop  offset="0.4247" style="stop-color:#C7C7C7"/>
					<stop  offset="0.5621" style="stop-color:#C9C9C9"/>
					<stop  offset="0.6115" style="stop-color:#D0D0D0"/>
					<stop  offset="0.6467" style="stop-color:#DBDBDB"/>
					<stop  offset="0.672" style="stop-color:#EAEAEA"/>
					<stop  offset="0.7652" style="stop-color:#C6C6C6"/>
					<stop  offset="0.8727" style="stop-color:#A2A2A2"/>
					<stop  offset="0.9301" style="stop-color:#949494"/>
				</linearGradient>
				<rect x="676.3" y="111.7" class="st125" width="27.8" height="4.3"/>
				
					<linearGradient id="SVGID_53_" gradientUnits="userSpaceOnUse" x1="654.15" y1="418.0706" x2="654.15" y2="422.5211" gradientTransform="matrix(1 0 0 -1 0 476)">
					<stop  offset="0" style="stop-color:#DBDBDB"/>
					<stop  offset="0.1183" style="stop-color:#5F6062"/>
					<stop  offset="0.2678" style="stop-color:#616264"/>
					<stop  offset="0.3217" style="stop-color:#68696A"/>
					<stop  offset="0.3601" style="stop-color:#737476"/>
					<stop  offset="0.3911" style="stop-color:#848586"/>
					<stop  offset="0.4174" style="stop-color:#9A9A9B"/>
					<stop  offset="0.4406" style="stop-color:#B5B5B5"/>
					<stop  offset="0.4409" style="stop-color:#B5B5B5"/>
					<stop  offset="0.4688" style="stop-color:#AEAEAE"/>
					<stop  offset="0.5509" style="stop-color:#9F9F9F"/>
					<stop  offset="0.6487" style="stop-color:#979797"/>
					<stop  offset="0.8011" style="stop-color:#949494"/>
					<stop  offset="0.957" style="stop-color:#2C2C2C"/>
				</linearGradient>
				<rect x="615.8" y="53.5" class="st126" width="76.7" height="4.5"/>
				
					<linearGradient id="SVGID_54_" gradientUnits="userSpaceOnUse" x1="600.9" y1="394.25" x2="707.9" y2="394.25" gradientTransform="matrix(1 0 0 -1 0 476)">
					<stop  offset="3.225806e-02" style="stop-color:#D1D1D1"/>
					<stop  offset="0.1173" style="stop-color:#DDDDDD"/>
					<stop  offset="0.2366" style="stop-color:#F4F4F4"/>
					<stop  offset="0.2684" style="stop-color:#E2E2E2"/>
					<stop  offset="0.3079" style="stop-color:#D3D3D3"/>
					<stop  offset="0.3544" style="stop-color:#CACACA"/>
					<stop  offset="0.4247" style="stop-color:#C7C7C7"/>
					<stop  offset="0.5621" style="stop-color:#C9C9C9"/>
					<stop  offset="0.6115" style="stop-color:#D0D0D0"/>
					<stop  offset="0.6467" style="stop-color:#DBDBDB"/>
					<stop  offset="0.672" style="stop-color:#EAEAEA"/>
					<stop  offset="0.7652" style="stop-color:#C6C6C6"/>
					<stop  offset="0.8727" style="stop-color:#A2A2A2"/>
					<stop  offset="0.9301" style="stop-color:#949494"/>
				</linearGradient>
				<rect x="600.9" y="79.1" class="st127" width="107" height="5.3"/>
				
					<linearGradient id="SVGID_55_" gradientUnits="userSpaceOnUse" x1="600.9" y1="412" x2="707.9" y2="412" gradientTransform="matrix(1 0 0 -1 0 476)">
					<stop  offset="3.225806e-02" style="stop-color:#D1D1D1"/>
					<stop  offset="0.1173" style="stop-color:#DDDDDD"/>
					<stop  offset="0.2366" style="stop-color:#F4F4F4"/>
					<stop  offset="0.2684" style="stop-color:#E2E2E2"/>
					<stop  offset="0.3079" style="stop-color:#D3D3D3"/>
					<stop  offset="0.3544" style="stop-color:#CACACA"/>
					<stop  offset="0.4247" style="stop-color:#C7C7C7"/>
					<stop  offset="0.5621" style="stop-color:#C9C9C9"/>
					<stop  offset="0.6115" style="stop-color:#D0D0D0"/>
					<stop  offset="0.6467" style="stop-color:#DBDBDB"/>
					<stop  offset="0.672" style="stop-color:#EAEAEA"/>
					<stop  offset="0.7652" style="stop-color:#C6C6C6"/>
					<stop  offset="0.8727" style="stop-color:#A2A2A2"/>
					<stop  offset="0.9301" style="stop-color:#949494"/>
				</linearGradient>
				<rect x="600.9" y="61.3" class="st128" width="107" height="5.4"/>
				
					<linearGradient id="SVGID_56_" gradientUnits="userSpaceOnUse" x1="601.2" y1="416.6" x2="708.2" y2="416.6" gradientTransform="matrix(1 0 0 -1 0 476)">
					<stop  offset="3.225806e-02" style="stop-color:#D1D1D1"/>
					<stop  offset="0.1173" style="stop-color:#DDDDDD"/>
					<stop  offset="0.2366" style="stop-color:#F4F4F4"/>
					<stop  offset="0.2684" style="stop-color:#E2E2E2"/>
					<stop  offset="0.3079" style="stop-color:#D3D3D3"/>
					<stop  offset="0.3544" style="stop-color:#CACACA"/>
					<stop  offset="0.4247" style="stop-color:#C7C7C7"/>
					<stop  offset="0.5621" style="stop-color:#C9C9C9"/>
					<stop  offset="0.6115" style="stop-color:#D0D0D0"/>
					<stop  offset="0.6467" style="stop-color:#DBDBDB"/>
					<stop  offset="0.672" style="stop-color:#EAEAEA"/>
					<stop  offset="0.7652" style="stop-color:#C6C6C6"/>
					<stop  offset="0.8727" style="stop-color:#A2A2A2"/>
					<stop  offset="0.9301" style="stop-color:#949494"/>
				</linearGradient>
				<polygon class="st129" points="601.2,61 616.3,57.8 692,57.8 708.2,61 				"/>
				
					<linearGradient id="SVGID_57_" gradientUnits="userSpaceOnUse" x1="654.7" y1="397.15" x2="654.7" y2="409.6084" gradientTransform="matrix(1 0 0 -1 0 476)">
					<stop  offset="0" style="stop-color:#DBDBDB"/>
					<stop  offset="0.1183" style="stop-color:#5F6062"/>
					<stop  offset="0.2678" style="stop-color:#616264"/>
					<stop  offset="0.3217" style="stop-color:#68696A"/>
					<stop  offset="0.3601" style="stop-color:#737476"/>
					<stop  offset="0.3911" style="stop-color:#848586"/>
					<stop  offset="0.4174" style="stop-color:#9A9A9B"/>
					<stop  offset="0.4406" style="stop-color:#B5B5B5"/>
					<stop  offset="0.4409" style="stop-color:#B5B5B5"/>
					<stop  offset="0.4688" style="stop-color:#AEAEAE"/>
					<stop  offset="0.5509" style="stop-color:#9F9F9F"/>
					<stop  offset="0.6487" style="stop-color:#979797"/>
					<stop  offset="0.8011" style="stop-color:#949494"/>
					<stop  offset="0.957" style="stop-color:#2C2C2C"/>
				</linearGradient>
				<polygon class="st130" points="601.2,78.9 609.2,76.4 609.2,70.1 601.2,66.4 708.2,66.4 699.9,70.1 699.9,76.4 708.2,78.9 				
					"/>
				
					<linearGradient id="SVGID_58_" gradientUnits="userSpaceOnUse" x1="654.7" y1="380.7829" x2="654.7" y2="391.6536" gradientTransform="matrix(1 0 0 -1 0 476)">
					<stop  offset="0" style="stop-color:#959799"/>
					<stop  offset="9.139785e-02" style="stop-color:#2C2C2C"/>
					<stop  offset="0.3441" style="stop-color:#5F6062"/>
					<stop  offset="0.7903" style="stop-color:#B5B5B5"/>
					<stop  offset="0.8012" style="stop-color:#AEAEAE"/>
					<stop  offset="0.833" style="stop-color:#9F9F9F"/>
					<stop  offset="0.871" style="stop-color:#979797"/>
					<stop  offset="0.9301" style="stop-color:#949494"/>
				</linearGradient>
				<polyline class="st131" points="601.2,84.6 611.2,87.5 611.2,92.7 605.6,95.2 632.9,95.2 640,92.7 640,87.5 670.1,87.5 
					670.1,92.7 676.7,95.2 703.5,95.2 697.9,92.7 697.9,87.5 708.2,84.6 601.2,84.3 				"/>
				
					<linearGradient id="SVGID_59_" gradientUnits="userSpaceOnUse" x1="622.4" y1="364.1716" x2="622.4" y2="375.4874" gradientTransform="matrix(1 0 0 -1 0 476)">
					<stop  offset="0" style="stop-color:#DBDBDB"/>
					<stop  offset="0.1183" style="stop-color:#5F6062"/>
					<stop  offset="0.2678" style="stop-color:#616264"/>
					<stop  offset="0.3217" style="stop-color:#68696A"/>
					<stop  offset="0.3601" style="stop-color:#737476"/>
					<stop  offset="0.3911" style="stop-color:#848586"/>
					<stop  offset="0.4174" style="stop-color:#9A9A9B"/>
					<stop  offset="0.4406" style="stop-color:#B5B5B5"/>
					<stop  offset="0.4409" style="stop-color:#B5B5B5"/>
					<stop  offset="0.4688" style="stop-color:#AEAEAE"/>
					<stop  offset="0.5509" style="stop-color:#9F9F9F"/>
					<stop  offset="0.6487" style="stop-color:#979797"/>
					<stop  offset="0.8011" style="stop-color:#949494"/>
					<stop  offset="0.957" style="stop-color:#2C2C2C"/>
				</linearGradient>
				<polygon class="st132" points="605,100.5 611.2,103 611.2,109.1 605,111.8 633.1,111.8 639.8,109.8 639.8,102.8 634,100.5 				
					"/>
				
					<linearGradient id="SVGID_60_" gradientUnits="userSpaceOnUse" x1="687.2" y1="363.8737" x2="687.2" y2="375.1895" gradientTransform="matrix(1 0 0 -1 0 476)">
					<stop  offset="0" style="stop-color:#DBDBDB"/>
					<stop  offset="0.1183" style="stop-color:#5F6062"/>
					<stop  offset="0.2678" style="stop-color:#616264"/>
					<stop  offset="0.3217" style="stop-color:#68696A"/>
					<stop  offset="0.3601" style="stop-color:#737476"/>
					<stop  offset="0.3911" style="stop-color:#848586"/>
					<stop  offset="0.4174" style="stop-color:#9A9A9B"/>
					<stop  offset="0.4406" style="stop-color:#B5B5B5"/>
					<stop  offset="0.4409" style="stop-color:#B5B5B5"/>
					<stop  offset="0.4688" style="stop-color:#AEAEAE"/>
					<stop  offset="0.5509" style="stop-color:#9F9F9F"/>
					<stop  offset="0.6487" style="stop-color:#979797"/>
					<stop  offset="0.8011" style="stop-color:#949494"/>
					<stop  offset="0.957" style="stop-color:#2C2C2C"/>
				</linearGradient>
				<polygon class="st133" points="704.1,100.8 698.1,103.3 698.1,109.4 704.1,112.1 676.8,112.1 670.3,110.1 670.3,103.1 
					675.9,100.8 				"/>
			</g>
		</g>
	</g>
</g>
</svg>
