<svg id="Layer_1" data-name="Layer 1" xmlns="http://www.w3.org/2000/svg" viewBox="0 0 285.38 148.5"><defs><style>.cls-1,.cls-3{fill:none;stroke:#fff;stroke-miterlimit:10;}.cls-2{fill:#fff;}.cls-3{stroke-width:2px;}</style></defs><title>Glu logo</title><rect class="cls-1" x="0.5" y="0.5" width="284.38" height="147.5"/><path class="cls-2" d="M268.18,94.78a2.62,2.62,0,0,0-1.26-3.41l-7.36-3.58a2.61,2.61,0,0,1-1.42-2.88,50.88,50.88,0,0,0,.89-6.26,2.61,2.61,0,0,1,2.12-2.36l8-1.52a2.62,2.62,0,0,0,2.1-3l-1.68-11.3a2.62,2.62,0,0,0-2.87-2.22l-7.72.82a2.63,2.63,0,0,1-2.76-1.77c-.31-.9-.64-1.79-1-2.68a2.63,2.63,0,0,1,.78-3.06l6.13-4.9a2.62,2.62,0,0,0,.48-3.6l-6.75-9.2a2.62,2.62,0,0,0-3.58-.62L246,37.46a2.62,2.62,0,0,1-3.23-.24,50.28,50.28,0,0,0-4-3.25,2.62,2.62,0,0,1-.9-3.06l2.63-6.8a2.62,2.62,0,0,0-1.4-3.35L228.66,16.2a2.62,2.62,0,0,0-3.41,1.26l-3.07,6.32a2.62,2.62,0,0,1-2.91,1.41,50.87,50.87,0,0,0-6.93-1A2.62,2.62,0,0,1,210,22.09l-1.3-6.82a2.62,2.62,0,0,0-3-2.1l-11.3,1.68a2.62,2.62,0,0,0-2.22,2.87l.72,6.73a2.61,2.61,0,0,1-1.69,2.73q-1.6.59-3.17,1.29a2.61,2.61,0,0,1-3.11-.76l-4.22-5.28a2.62,2.62,0,0,0-3.6-.48l-9.21,6.76a2.62,2.62,0,0,0-.62,3.58L171,37.9a2.62,2.62,0,0,1-.22,3.2,50.16,50.16,0,0,0-3.41,4.29,2.62,2.62,0,0,1-3.09.93L158,43.87a2.62,2.62,0,0,0-3.36,1.4l-4.56,10.47a2.62,2.62,0,0,0,1.26,3.41l6.27,3A2.62,2.62,0,0,1,159,65a50.85,50.85,0,0,0-.85,6.93,2.62,2.62,0,0,1-2.12,2.44l-6.91,1.32a2.62,2.62,0,0,0-2.1,3L148.72,90a2.62,2.62,0,0,0,2.87,2.22l7.3-.78a2.62,2.62,0,0,1,2.71,1.64q.57,1.43,1.22,2.84a2.62,2.62,0,0,1-.74,3.16l-5.76,4.61a2.62,2.62,0,0,0-.48,3.6l6.76,9.21a2.62,2.62,0,0,0,3.58.62l6.42-4.32a2.61,2.61,0,0,1,3.16.18q1.88,1.61,3.88,3a2.61,2.61,0,0,1,.93,3.09l-2.83,7.29a2.62,2.62,0,0,0,1.4,3.36l10.46,4.56A2.62,2.62,0,0,0,193,133l3.56-7.32a2.61,2.61,0,0,1,2.83-1.43,50.84,50.84,0,0,0,6.26.77,2.61,2.61,0,0,1,2.41,2.12l1.54,8.06a2.62,2.62,0,0,0,3,2.1l11.29-1.68a2.62,2.62,0,0,0,2.22-2.87l-.88-8.28a2.63,2.63,0,0,1,1.71-2.74c.79-.29,1.57-.61,2.35-.94a2.63,2.63,0,0,1,3.11.76l5.28,6.61a2.62,2.62,0,0,0,3.6.48l9.2-6.75a2.62,2.62,0,0,0,.62-3.58l-4.72-7a2.63,2.63,0,0,1,.21-3.2c1-1.15,2-2.34,2.85-3.57a2.63,2.63,0,0,1,3.07-.91l7.76,3a2.62,2.62,0,0,0,3.35-1.4ZM236.2,111a45.09,45.09,0,1,1,9.67-63A45.09,45.09,0,0,1,236.2,111Z" transform="translate(-27.53 -1)"/><path class="cls-2" d="M185.44,67.68a3.54,3.54,0,0,0-3.28,2.1,9.65,9.65,0,0,0-.92,4.47,8.56,8.56,0,0,0,1,4.36,3.64,3.64,0,0,0,3.33,1.93c1.28,0,2-.61,3.1-1.84a3,3,0,0,0,.85-2V71.75a3.23,3.23,0,0,0-.78-2.21C187.64,68.3,186.84,67.68,185.44,67.68Z" transform="translate(-27.53 -1)"/><path class="cls-2" d="M242.56,50.1a41.47,41.47,0,1,0-8.9,58A41.47,41.47,0,0,0,242.56,50.1ZM222.5,54h15v5h-15Zm-24,14.14-2,.15V83.42c0,2.8.18,4.85-.15,6.15-1.12,4.52-5,6.79-12,6.79a23.18,23.18,0,0,1-9-1.71l1.86-4.88a14.68,14.68,0,0,0,6.63,1.66c2.95,0,4.46-.88,5.41-2.63.51-.93.33-2.59.33-5V82.39c-2,2.1-3.56,3.15-6.21,3.15a8.25,8.25,0,0,1-6.83-3.22c-1.62-2-2.32-4.71-2.32-8.17a13.15,13.15,0,0,1,2.42-8.06,9,9,0,0,1,14.21,0L190.3,63l8.2.22ZM213.5,86h-11V81.25l1-.13V58.46l-1-.13V53.4l9-.22V81.12l2,.13Zm22,0V83a25.33,25.33,0,0,1-2.34,2.12,9.56,9.56,0,0,1-5.55,1.64c-3.14,0-5.16-1.17-6.37-3.53-.6-1.17-.74-3.09-.74-5.78V68.29l-4-.15V63.21l10-.22V77.42c0,2.86,1.53,4.29,3.57,4.29,1.75,0,2.43-1.2,5.43-3.61V68.29l-3-.15V63.21l9-.22V81.12l3,.13V86Z" transform="translate(-27.53 -1)"/><path class="cls-1" d="M131.78,118.85a.65.65,0,0,0-.31-.85l-1.84-.89a.65.65,0,0,1-.35-.72,12.69,12.69,0,0,0,.22-1.56.65.65,0,0,1,.53-.59l2-.38a.65.65,0,0,0,.52-.74l-.42-2.82a.65.65,0,0,0-.72-.55l-1.93.21a.66.66,0,0,1-.69-.44c-.08-.22-.16-.45-.25-.67a.66.66,0,0,1,.19-.76l1.53-1.22a.65.65,0,0,0,.12-.9l-1.68-2.29a.65.65,0,0,0-.89-.16l-1.55,1a.65.65,0,0,1-.8-.06,12.54,12.54,0,0,0-1-.81.65.65,0,0,1-.22-.76l.66-1.69a.65.65,0,0,0-.35-.84l-2.61-1.14a.65.65,0,0,0-.85.31l-.77,1.57a.65.65,0,0,1-.72.35,12.68,12.68,0,0,0-1.73-.25.65.65,0,0,1-.59-.53l-.32-1.7a.65.65,0,0,0-.74-.52l-2.82.42a.65.65,0,0,0-.55.72l.18,1.68a.65.65,0,0,1-.42.68q-.4.15-.79.32a.65.65,0,0,1-.78-.19L110,100.81a.65.65,0,0,0-.9-.12l-2.3,1.68a.65.65,0,0,0-.16.89l.94,1.4a.65.65,0,0,1-.05.8,12.51,12.51,0,0,0-.85,1.07.65.65,0,0,1-.77.23l-1.57-.61a.65.65,0,0,0-.84.35l-1.14,2.61a.65.65,0,0,0,.31.85l1.56.76a.65.65,0,0,1,.36.71,12.68,12.68,0,0,0-.21,1.73.65.65,0,0,1-.53.61l-1.72.33a.65.65,0,0,0-.52.74l.42,2.82a.65.65,0,0,0,.72.55l1.82-.19a.65.65,0,0,1,.68.41q.14.36.31.71a.65.65,0,0,1-.18.79l-1.44,1.15a.65.65,0,0,0-.12.9l1.68,2.3a.65.65,0,0,0,.89.16l1.6-1.08a.65.65,0,0,1,.79,0q.47.4,1,.75a.65.65,0,0,1,.23.77l-.71,1.82a.65.65,0,0,0,.35.84l2.61,1.14a.65.65,0,0,0,.85-.31l.89-1.82a.65.65,0,0,1,.71-.36,12.68,12.68,0,0,0,1.56.19.65.65,0,0,1,.6.53l.38,2a.65.65,0,0,0,.74.52l2.82-.42a.65.65,0,0,0,.55-.72l-.22-2.06a.66.66,0,0,1,.43-.68l.59-.23a.66.66,0,0,1,.78.19l1.32,1.65a.65.65,0,0,0,.9.12l2.29-1.68a.65.65,0,0,0,.16-.89L126.34,123a.65.65,0,0,1,.05-.8c.25-.29.49-.58.71-.89a.65.65,0,0,1,.77-.23l1.93.75a.65.65,0,0,0,.84-.35Zm-8,4a11.24,11.24,0,1,1,2.41-15.71A11.24,11.24,0,0,1,123.8,122.89Z" transform="translate(-27.53 -1)"/><path class="cls-2" d="M122.44,109.87a6.68,6.68,0,1,0-1.43,9.33A6.68,6.68,0,0,0,122.44,109.87Z" transform="translate(-27.53 -1)"/><path class="cls-3" d="M121.72,83.72a1.14,1.14,0,0,0-.55-1.48L118,80.69a1.13,1.13,0,0,1-.62-1.25,22.06,22.06,0,0,0,.39-2.71,1.13,1.13,0,0,1,.92-1l3.45-.66a1.14,1.14,0,0,0,.91-1.28l-.73-4.9a1.14,1.14,0,0,0-1.25-1l-3.35.36a1.14,1.14,0,0,1-1.2-.77c-.13-.39-.28-.78-.44-1.16a1.14,1.14,0,0,1,.34-1.33l2.66-2.12a1.14,1.14,0,0,0,.21-1.56l-2.93-4a1.14,1.14,0,0,0-1.55-.27l-2.69,1.81a1.14,1.14,0,0,1-1.4-.1A21.8,21.8,0,0,0,109,57.35a1.14,1.14,0,0,1-.39-1.33l1.14-2.95a1.14,1.14,0,0,0-.61-1.45l-4.54-2a1.14,1.14,0,0,0-1.48.55l-1.33,2.74a1.14,1.14,0,0,1-1.26.61,22.06,22.06,0,0,0-3-.43,1.14,1.14,0,0,1-1-.92l-.56-3a1.14,1.14,0,0,0-1.28-.91l-4.9.73a1.14,1.14,0,0,0-1,1.25l.31,2.92a1.13,1.13,0,0,1-.73,1.18q-.69.26-1.37.56a1.13,1.13,0,0,1-1.35-.33l-1.83-2.29a1.14,1.14,0,0,0-1.56-.21l-4,2.93A1.14,1.14,0,0,0,78,56.62l1.64,2.43a1.14,1.14,0,0,1-.09,1.39A21.75,21.75,0,0,0,78,62.3a1.14,1.14,0,0,1-1.34.4L74,61.64a1.14,1.14,0,0,0-1.45.61l-2,4.54a1.14,1.14,0,0,0,.55,1.48l2.72,1.32a1.14,1.14,0,0,1,.62,1.24,22,22,0,0,0-.37,3,1.14,1.14,0,0,1-.92,1.06l-3,.57a1.14,1.14,0,0,0-.91,1.28l.73,4.9a1.14,1.14,0,0,0,1.25,1l3.16-.34a1.13,1.13,0,0,1,1.18.71q.25.62.53,1.23a1.14,1.14,0,0,1-.32,1.37l-2.5,2A1.14,1.14,0,0,0,73,89.13l2.93,4a1.14,1.14,0,0,0,1.55.27l2.78-1.87a1.13,1.13,0,0,1,1.37.08q.81.7,1.68,1.31a1.13,1.13,0,0,1,.4,1.34l-1.23,3.16a1.14,1.14,0,0,0,.61,1.45l4.54,2a1.14,1.14,0,0,0,1.48-.55l1.54-3.17a1.13,1.13,0,0,1,1.23-.62,22,22,0,0,0,2.71.33,1.13,1.13,0,0,1,1,.92l.67,3.49a1.14,1.14,0,0,0,1.28.91l4.9-.73a1.14,1.14,0,0,0,1-1.25l-.38-3.59a1.14,1.14,0,0,1,.74-1.19c.34-.13.68-.26,1-.41a1.14,1.14,0,0,1,1.35.33l2.29,2.87a1.14,1.14,0,0,0,1.56.21l4-2.93a1.14,1.14,0,0,0,.27-1.55l-2-3a1.14,1.14,0,0,1,.09-1.39c.44-.5.85-1,1.24-1.55a1.14,1.14,0,0,1,1.33-.39l3.36,1.3a1.14,1.14,0,0,0,1.45-.61Zm-13.87,7A19.55,19.55,0,1,1,112,63.42,19.55,19.55,0,0,1,107.85,90.74Z" transform="translate(-27.53 -1)"/><path class="cls-2" d="M105.48,68.11A11.61,11.61,0,1,0,103,84.34,11.61,11.61,0,0,0,105.48,68.11Z" transform="translate(-27.53 -1)"/><path class="cls-1" d="M132,41.08a.66.66,0,0,0-.32-.86l-1.86-.9a.66.66,0,0,1-.36-.73,12.84,12.84,0,0,0,.22-1.58.66.66,0,0,1,.53-.6l2-.38a.66.66,0,0,0,.53-.75l-.42-2.85a.66.66,0,0,0-.73-.56l-1.95.21a.66.66,0,0,1-.7-.45c-.08-.23-.16-.45-.25-.68a.66.66,0,0,1,.2-.77L130.42,29a.66.66,0,0,0,.12-.91l-1.7-2.32a.66.66,0,0,0-.9-.16l-1.57,1.05a.66.66,0,0,1-.81-.06,12.69,12.69,0,0,0-1-.82.66.66,0,0,1-.23-.77l.66-1.72a.66.66,0,0,0-.35-.85L122,21.25a.66.66,0,0,0-.86.32l-.77,1.59a.66.66,0,0,1-.73.36,12.84,12.84,0,0,0-1.75-.25.66.66,0,0,1-.6-.54L116.93,21a.66.66,0,0,0-.75-.53l-2.85.42a.66.66,0,0,0-.56.73l.18,1.7a.66.66,0,0,1-.43.69q-.4.15-.8.33a.66.66,0,0,1-.79-.19l-1.07-1.33a.66.66,0,0,0-.91-.12l-2.32,1.71a.66.66,0,0,0-.16.9l1,1.42a.66.66,0,0,1-.06.81,12.66,12.66,0,0,0-.86,1.08.66.66,0,0,1-.78.23l-1.59-.62a.66.66,0,0,0-.85.35l-1.15,2.64a.66.66,0,0,0,.32.86l1.58.77a.66.66,0,0,1,.36.72,12.83,12.83,0,0,0-.22,1.75.66.66,0,0,1-.54.61l-1.75.33a.66.66,0,0,0-.53.75l.42,2.85a.66.66,0,0,0,.73.56l1.84-.2a.66.66,0,0,1,.68.41q.14.36.31.72a.66.66,0,0,1-.19.8l-1.45,1.16a.66.66,0,0,0-.12.91l1.71,2.32a.66.66,0,0,0,.9.16l1.62-1.09a.66.66,0,0,1,.8,0q.47.41,1,.76a.66.66,0,0,1,.24.78l-.71,1.84a.66.66,0,0,0,.35.85l2.64,1.15a.66.66,0,0,0,.86-.32l.9-1.85a.66.66,0,0,1,.71-.36,12.83,12.83,0,0,0,1.58.19.66.66,0,0,1,.61.54l.39,2a.66.66,0,0,0,.75.53l2.85-.42a.66.66,0,0,0,.56-.73l-.22-2.09a.66.66,0,0,1,.43-.69l.59-.24a.66.66,0,0,1,.79.19l1.33,1.67a.66.66,0,0,0,.91.12l2.32-1.7a.66.66,0,0,0,.16-.9l-1.19-1.77a.66.66,0,0,1,.05-.81c.26-.29.49-.59.72-.9a.66.66,0,0,1,.78-.23l2,.76a.66.66,0,0,0,.85-.35Zm-8.07,4.09a11.38,11.38,0,1,1,2.44-15.91A11.38,11.38,0,0,1,123.89,45.17Z" transform="translate(-27.53 -1)"/><path class="cls-2" d="M122.5,32a6.76,6.76,0,1,0-1.45,9.45A6.76,6.76,0,0,0,122.5,32Z" transform="translate(-27.53 -1)"/><path class="cls-3" d="M89.19,66.7" transform="translate(-27.53 -1)"/><path class="cls-3" d="M130.75,23.94" transform="translate(-27.53 -1)"/><polyline class="cls-3" points="181.46 33.34 68.59 63.82 68.76 83.64 181.6 114.17"/></svg>